<?xml version="1.0" encoding="utf-8"?>
<!-- Generator: Adobe Illustrator 21.0.2, SVG Export Plug-In . SVG Version: 6.00 Build 0)  -->
<svg version="1.1" xmlns="http://www.w3.org/2000/svg" xmlns:xlink="http://www.w3.org/1999/xlink" x="0px" y="0px" width="1400px"
	 height="1872px" viewBox="0 0 1400 1872" enable-background="new 0 0 1400 1872" xml:space="preserve">
<g id="BG">
	<g>
		<rect y="0" fill="#FFFFFF" width="1400" height="1872"/>
		<path fill="#C8EAFB" d="M325.6,297c-0.8,0.2-1.3,1-1.2,1.8l38,179.8c0.1,0.7,0.8,1.2,1.5,1.2c0.1,0,0.2,0,0.3,0
			c0.8-0.2,1.3-1,1.2-1.8c-12.7-59.9-25.3-119.8-38-179.8C327.2,297.4,326.4,296.8,325.6,297z"/>
		<path fill="#C8EAFB" d="M482.6,1035.3c-0.4-0.2-0.8-0.3-1.2-0.1l-0.2,0.1c-0.7,0.3-1.1,1-1,1.7l18.1,85.8c0.1,0.7,0.8,1.2,1.5,1.2
			l0.2,0c0,0,0,0,0,0c0.4,0,0.9-0.2,1.2-0.5c0.3-0.4,0.4-0.8,0.3-1.3l-18.1-85.9C483.3,1035.9,483,1035.5,482.6,1035.3z"/>
		<path fill="#C8EAFB" d="M606.3,1144.8c-0.6,0.3-0.8,1-0.7,1.6l22.6,106.6c0,0,0,0,0,0l23,109c1.4,1.6,2.7,3.2,4.1,4.7l-24.2-114.3
			c0,0,0,0,0,0l-22.5-106.6c-0.1-0.3-0.3-0.6-0.5-0.8l-1,1.1l1-1.1C607.6,1144.5,606.9,1144.5,606.3,1144.8z"/>
		<path fill="#C8EAFB" d="M918.7,685.4c-0.5-0.2-1-0.1-1.5,0.2l-0.2,0.1c-0.5,0.4-0.7,0.9-0.6,1.5c4.5,21.2,9,42.6,13.3,63.2
			c3.4,16.2,6.7,32.3,10.1,48.4c0.1,0.3,0.2,0.6,0.5,0.8l0.6,0.5c0.3,0.2,0.6,0.4,1,0.4c0.3,0,0.5-0.1,0.8-0.2
			c0.6-0.3,0.8-1,0.7-1.6l-23.7-112.3C919.6,686,919.2,685.6,918.7,685.4z"/>
		<path fill="#C8EAFB" d="M1069.4,919.1c-0.8,0.2-1.3,1-1.2,1.8c5.6,26.8,11.2,53.6,16.9,80.3l1.7-6.9l-15.7-74.1v0
			C1071,919.5,1070.2,919,1069.4,919.1z"/>
		<path fill="#C8EAFB" d="M1033.6,740.4c-0.2-0.8-1-1.3-1.8-1.2l-0.4,0.1c-0.4,0.1-0.7,0.3-1,0.6c-0.2,0.3-0.3,0.7-0.2,1.1
			l27.3,129.4c0.1,0.7,0.8,1.2,1.5,1.2c0.1,0,0.2,0,0.3,0c0.8-0.2,1.3-1,1.2-1.8c-7.1-35.4-14.2-69.4-21.8-105.3
			C1037,756.5,1035.3,748.4,1033.6,740.4z"/>
		<path fill="#C8EAFB" d="M1136.4,758.4c-0.3,0.3-0.4,0.8-0.3,1.2l1.3,6.2c5.5,26,11,51.9,16.5,77.9c1.4,1,2.7,2.1,3.8,3.5
			l-18.6-88.2c-0.2-0.7-0.9-1.2-1.6-1.2l0.1,1.5l-0.1-1.5C1137,757.8,1136.6,758,1136.4,758.4z"/>
		<path fill="#C8EAFB" d="M1016.3,180.3c-0.4-0.2-0.8-0.3-1.2-0.2c-0.8,0.2-1.2,1-1.1,1.8l7,33c0.1,0.5,0.4,0.9,0.9,1.1
			c0,0,0.1,0,0.1,0c0.2,0.1,0.4,0.1,0.6,0.1c0.3,0,0.7-0.1,0.9-0.3c0.4-0.4,0.7-0.9,0.5-1.5l-7-33.1
			C1016.9,180.8,1016.7,180.5,1016.3,180.3z"/>
		<path fill="#C8EAFB" d="M1233.3,724.6c-0.5-0.2-1-0.1-1.4,0.1l-0.2,0.1c-0.5,0.3-0.8,1-0.7,1.6l3.1,14.7c0.1,0.5,0.4,0.9,0.8,1.1
			c0.2,0.1,0.4,0.1,0.6,0.1c0.3,0,0.5-0.1,0.7-0.2l0.2-0.1c0.6-0.3,0.9-1,0.7-1.6l-3.1-14.8C1234,725.2,1233.7,724.8,1233.3,724.6z"
			/>
		<path fill="#C8EAFB" d="M1241.8,772.3c-0.6,0.3-0.9,1-0.7,1.6c3.6,16.8,7.2,33.7,10.8,50.6l1.7-6.7l-9.4-44.6
			c-0.1-0.5-0.4-0.9-0.9-1.1c-0.4-0.2-0.9-0.2-1.4,0.1C1242,772.2,1241.9,772.3,1241.8,772.3l0.7,1.3l0,0L1241.8,772.3z"/>
		<path fill="#C8EAFB" d="M1114.5,166.4l-0.4,0.1c-0.4,0.1-0.7,0.3-1,0.6c-0.2,0.3-0.3,0.7-0.2,1.1c10.4,48.8,21.2,100,35.1,166
			c0.1,0.5,0.5,0.9,1,1.1l0.4,0.1c0.2,0.1,0.3,0.1,0.5,0.1c0.4,0,0.7-0.1,1-0.4c0.4-0.4,0.6-0.9,0.5-1.4l-35.1-166.2
			C1116,166.8,1115.2,166.2,1114.5,166.4z"/>
		<path fill="#C8EAFB" d="M1212.7,147.5l-0.2,0c-0.4,0.1-0.7,0.3-1,0.6c-0.2,0.3-0.3,0.7-0.2,1.1l7.7,36.3c0.1,0.7,0.8,1.2,1.5,1.2
			c0.1,0,0.2,0,0.2,0l0.3,0c0.4-0.1,0.8-0.3,1-0.6c0.2-0.3,0.3-0.8,0.2-1.2l-7.7-36.3C1214.4,147.9,1213.5,147.4,1212.7,147.5z"/>
		<path fill="#C8EAFB" d="M1311.4,127.6c-0.3-0.2-0.7-0.3-1.1-0.2l-0.3,0.1c-0.8,0.2-1.3,1-1.1,1.8c1.7,8,3.4,16,5.1,23.9l2.6,12.1
			c0.1,0.6,0.6,1,1.2,1.2c0.1,0,0.2,0,0.3,0c0.5,0,0.9-0.2,1.2-0.6l0.2-0.3c0.3-0.3,0.4-0.8,0.3-1.2l-7.6-35.8
			C1312,128.2,1311.8,127.9,1311.4,127.6z"/>
		<path fill="#C8EAFB" d="M0,359.8l1,4.8c0.1,0.5,0.4,0.9,0.9,1.1l0.5,0.2C2.7,366,2.8,366,3,366c0.3,0,0.7-0.1,1-0.4
			c0.4-0.4,0.6-0.9,0.5-1.5L0,342.9V359.8z"/>
		<path fill="#C8EAFB" d="M109.3,376.9c0-0.1,0-0.1,0-0.2c-1.1-3.6-1.9-6.9-2.8-10.6L88.9,283c0,0,0,0,0,0
			c-3.8-18.2-7.6-36.9-11.5-56.4c-0.1-0.5-0.4-0.9-0.8-1.1c-0.4-0.2-0.9-0.2-1.4,0l-0.3,0.2c-0.6,0.3-0.9,1-0.8,1.6l11.9,56.2
			c0,0,0,0,0,0c4.7,22.8,9.6,46.3,14.4,70.9c0,0,0,0.1,0,0.1c1.2,4,2.1,7.8,3,11.5l0.2,0.7l6.1,29c3.5,18.8,7.3,38.2,12.1,61.1
			c0.1,0.3,0.2,0.5,0.4,0.7l1.1,1.1c0.3,0.3,0.7,0.5,1.1,0.5c0.2,0,0.5-0.1,0.7-0.2c0.6-0.3,0.9-1,0.8-1.6l-13.1-62.2
			C111.3,388.3,110.3,382.4,109.3,376.9z"/>
		<path fill="#C8EAFB" d="M159.5,141.7l-0.2,0c-0.4,0.1-0.8,0.3-1,0.6c-0.2,0.3-0.3,0.8-0.2,1.2C180.4,249.2,200.3,343.9,219,433
			c0.1,0.7,0.8,1.2,1.5,1.2c0.1,0,0.2,0,0.3,0c0.1,0,0.2,0,0.4-0.1l0.1,0c0.4-0.1,0.8-0.3,1-0.6c0.2-0.3,0.3-0.8,0.2-1.2
			l-61.2-289.4C161.2,142.1,160.3,141.6,159.5,141.7z"/>
		<path fill="#C8EAFB" d="M310.3,123.5c-0.4-0.2-0.8-0.3-1.2-0.1l-0.3,0.1c-0.7,0.2-1.1,1-1,1.7c7.4,35,14.8,70.2,22.2,105.5
			c0.1,0.7,0.8,1.2,1.5,1.2c0.1,0,0.2,0,0.2,0l0.4,0c0.4-0.1,0.8-0.3,1-0.6s0.3-0.8,0.2-1.2L311,124.5
			C311,124.1,310.7,123.7,310.3,123.5z"/>
		<path fill="#C8EAFB" d="M127.8,0c5.1,24.3,10.3,48.7,15.4,73.1c0.1,0.4,0.4,0.7,0.7,1c0.2,0.1,0.5,0.2,0.8,0.2
			c0.1,0,0.3,0,0.4-0.1l0.1,0c0.8-0.2,1.3-1,1.1-1.8L131.1,0H127.8z"/>
		<path fill="#C8EAFB" d="M362,615.2c-0.7,0-1.3,0.5-1.5,1.1l-0.2,0.7c-0.1,0.2-0.1,0.5,0,0.7c4.6,21.6,9.2,43.2,13.7,64.8l5.9,27.9
			c0.1,0.3,0.2,0.6,0.4,0.8l0.3,0.3c0.3,0.3,0.7,0.4,1,0.4c0.3,0,0.5-0.1,0.7-0.2c0.6-0.3,0.9-1,0.7-1.6l-19.8-93.7
			C363.3,615.7,362.7,615.2,362,615.2z"/>
		<path fill="#C8EAFB" d="M296.3,300.9c-0.4-0.2-0.8-0.3-1.2-0.2l-0.4,0.1c-0.8,0.2-1.2,1-1,1.8l5.9,28c0.1,0.6,0.6,1.1,1.3,1.2
			c0.1,0,0.1,0,0.2,0c0.6,0,1.1-0.3,1.4-0.8l0.3-0.5c0.1-0.3,0.2-0.6,0.1-1l-5.8-27.5C296.9,301.5,296.6,301.2,296.3,300.9z"/>
		<path fill="#C8EAFB" d="M323,427l-0.4-0.3c-0.5-0.4-1.2-0.4-1.7-0.1c-0.5,0.3-0.8,1-0.7,1.6l12,56.6c0,0.2,0.1,0.4,0.3,0.6
			l0.2,0.3c0.1,0.1,0.2,0.2,0.3,0.3c0.3,0.4,0.7,0.6,1.2,0.6c0.2,0,0.4,0,0.6-0.1c0.7-0.3,1-1,0.9-1.7l-12-57
			C323.5,427.6,323.3,427.2,323,427z"/>
		<path fill="#C8EAFB" d="M229.8,0l11.5,54.7c0.1,0.7,0.8,1.2,1.5,1.2c0,0,0.1,0,0.1,0l0.3,0c0.4,0,0.8-0.2,1.1-0.6
			c0.3-0.3,0.4-0.8,0.3-1.2L233.2,0H229.8z"/>
		<path fill="#C8EAFB" d="M332.2,0l21.1,99.8c0.1,0.5,0.5,0.9,1,1.1c0,0,0,0,0,0c0.2,0.1,0.3,0.1,0.5,0.1c0.4,0,0.7-0.1,1-0.4
			c0.4-0.4,0.6-0.9,0.5-1.4L335.2,0H332.2z"/>
		<path fill="#C8EAFB" d="M465.6,616.1c-0.1-0.5-0.5-0.8-0.9-1c-0.4-0.2-1-0.1-1.4,0.1c-0.6,0.3-0.9,1-0.7,1.6l22.6,107.1
			c0.1,0.6,0.6,1,1.1,1.1c0.1,0,0.2,0,0.4,0c0.4,0,0.9-0.2,1.2-0.6l0.1-0.1c0.3-0.4,0.4-0.8,0.3-1.2l-1.9-8.9
			C479.4,681.5,472.5,648.8,465.6,616.1z"/>
		<path fill="#C8EAFB" d="M423.3,419.9c-0.5-0.2-1.1,0-1.5,0.3l-0.1,0.1c-0.4,0.4-0.5,0.9-0.4,1.4l11.1,52.4
			c0.1,0.6,0.7,1.1,1.3,1.2c0,0,0.1,0,0.1,0c0.1,0,0.1,0,0.2,0c0.4,0,0.8-0.2,1.1-0.5c0.3-0.4,0.5-0.9,0.4-1.3l-11.1-52.5
			C424.2,420.5,423.8,420.1,423.3,419.9z"/>
		<path fill="#C8EAFB" d="M396.3,297.4c0.3,0,0.7-0.1,1-0.4c0.4-0.4,0.6-0.9,0.5-1.5l-2.9-13.6c-0.1-0.5-0.5-0.9-1-1.1
			c-0.5-0.2-1-0.1-1.4,0.2c0,0-0.1,0.1-0.1,0.1c-0.4,0.4-0.7,0.9-0.5,1.5l2.8,13.5c0.1,0.5,0.5,0.9,1,1.1l0.6-1.4l-0.6,1.4
			C396,297.3,396.1,297.4,396.3,297.4z"/>
		<path fill="#C8EAFB" d="M726.3,677.5l67.6,319.8c0.1,0.7,0.8,1.2,1.5,1.2c0.1,0,0.2,0,0.3,0c0.8-0.2,1.3-1,1.2-1.8
			c-22.5-106.6-45-213.2-67.6-319.8c-0.2-0.8-1-1.3-1.8-1.2C726.6,675.9,726.1,676.7,726.3,677.5L726.3,677.5
			C726.3,677.5,726.3,677.5,726.3,677.5z"/>
		<path fill="#C8EAFB" d="M1192.6,946.5c0.1,0,0.2,0,0.3,0c0.8-0.2,1.3-1,1.2-1.8c0,0,0,0,0,0l0-0.1c-12.6-59.9-25.3-119.7-38-179.6
			l0-0.1c-0.2-0.8-1-1.3-1.8-1.2c-0.8,0.2-1.3,1-1.2,1.8l38,179.7c0,0,0,0.1,0,0.1v0C1191.2,946,1191.9,946.5,1192.6,946.5z"/>
		<path fill="#C8EAFB" d="M822.7,788.6c-0.1,0-0.2,0-0.4,0c-0.4,0-0.8,0.3-1.1,0.6c-0.3,0.3-0.3,0.8-0.3,1.2l8.7,41
			c0.1,0.5,0.4,0.9,0.9,1.1l0.5,0.2c0.2,0.1,0.4,0.1,0.6,0.1c0.3,0,0.7-0.1,1-0.4c0.4-0.4,0.6-0.9,0.5-1.5l-8.7-41.3
			C824.3,789,823.5,788.5,822.7,788.6z"/>
		<path fill="#C8EAFB" d="M937.9,843.7c0-0.1,0-0.1,0-0.2c-1.1-3.6-1.9-6.9-2.8-10.6l-17.6-83.2c0,0,0,0,0,0
			C914,732.5,910,713,906,693.4c-0.1-0.5-0.4-0.9-0.8-1.1c-0.4-0.2-0.9-0.2-1.4,0l-0.4,0.2c-0.6,0.3-0.9,1-0.8,1.6l11.9,56.2
			c0,0,0,0,0,0l0,0.1c4.7,22.8,9.6,46.3,14.4,70.7c0,0,0,0.1,0,0.1c1.2,4,2.1,7.8,3,11.4l0.2,0.8l6.1,29c3.5,18.8,7.3,38.2,12.1,61
			c0.1,0.3,0.2,0.5,0.4,0.7l1.1,1.1c0.3,0.3,0.7,0.5,1.1,0.5c0.2,0,0.5-0.1,0.7-0.2c0.6-0.3,0.9-1,0.8-1.6L941.3,862
			C940,855,938.9,849.2,937.9,843.7z"/>
		<path fill="#C8EAFB" d="M988.2,608.5l-0.2,0c-0.4,0.1-0.8,0.3-1,0.6s-0.3,0.8-0.2,1.2c22.3,105.9,42.2,200.6,60.9,289.5
			c0.1,0.7,0.8,1.2,1.5,1.2c0.1,0,0.2,0,0.3,0c0.1,0,0.2,0,0.4-0.1l0.1,0c0.4-0.1,0.8-0.3,1-0.6c0.2-0.3,0.3-0.8,0.2-1.2L990,609.7
			C989.8,608.9,989,608.3,988.2,608.5z"/>
		<path fill="#C8EAFB" d="M1139,590.3c-0.4-0.2-0.8-0.3-1.2-0.1l-0.3,0.1c-0.7,0.2-1.1,1-1,1.7c7.4,35,14.8,70.2,22.2,105.5
			c0.1,0.7,0.8,1.2,1.5,1.2c0.1,0,0.2,0,0.2,0l0.4,0c0.4-0.1,0.8-0.3,1-0.6s0.3-0.8,0.2-1.2l-22.3-105.6
			C1139.6,590.8,1139.4,590.5,1139,590.3z"/>
		<path fill="#C8EAFB" d="M943.3,394.4l-0.2,0c-0.5,0-0.9,0.2-1.2,0.5s-0.4,0.8-0.3,1.3c10.1,47.7,20.2,95.6,30.3,143.7
			c0.1,0.4,0.4,0.7,0.7,1c0.2,0.1,0.5,0.2,0.8,0.2c0.1,0,0.3,0,0.4-0.1l0.1,0c0.8-0.2,1.3-1,1.1-1.8l-30.3-143.6
			C944.6,394.9,944,394.4,943.3,394.4z"/>
		<path fill="#C8EAFB" d="M1124.9,767.7c-0.4-0.2-0.8-0.3-1.2-0.1l-0.3,0.1c-0.8,0.2-1.2,1-1.1,1.8l5.9,28c0.1,0.6,0.7,1.1,1.3,1.2
			c0.1,0,0.1,0,0.2,0c0.6,0,1.1-0.3,1.4-0.9l0.3-0.5c0.1-0.3,0.2-0.6,0.1-1l-5.8-27.5C1125.6,768.3,1125.3,767.9,1124.9,767.7z"/>
		<path fill="#C8EAFB" d="M1055.7,440.2c-0.4-0.2-0.9-0.2-1.3,0l-0.3,0.1c-0.6,0.3-1,1-0.9,1.7l16.8,79.5c0.1,0.7,0.8,1.2,1.5,1.2
			c0,0,0.1,0,0.1,0l0.3,0c0.4,0,0.8-0.2,1.1-0.6c0.3-0.3,0.4-0.8,0.3-1.2l-16.8-79.6C1056.4,440.8,1056.1,440.4,1055.7,440.2z"/>
		<path fill="#C8EAFB" d="M1006.6,207.9c-0.4-0.2-0.8-0.3-1.2-0.1l-0.2,0.1c-0.7,0.2-1.1,1-1,1.7l18.1,85.8c0.1,0.7,0.8,1.2,1.6,1.2
			l0.2,0c0,0,0,0,0,0c0.4,0,0.9-0.2,1.2-0.5c0.3-0.4,0.4-0.8,0.3-1.3l-18.1-85.9C1007.3,208.5,1007,208.1,1006.6,207.9z"/>
		<path fill="#C8EAFB" d="M1155.1,425l-22.5-106.6c-0.1-0.3-0.3-0.6-0.5-0.9c-0.5-0.4-1.2-0.5-1.7-0.2c-0.6,0.3-0.8,1-0.7,1.6
			l22.6,106.6l0,0c0,0,0,0,0,0l29.8,140.9c0.1,0.5,0.5,0.9,1,1.1c0,0,0,0,0,0c0.2,0.1,0.3,0.1,0.5,0.1c0.4,0,0.7-0.1,1-0.4
			c0.4-0.4,0.6-0.9,0.5-1.4L1155.1,425C1155.1,425,1155.1,425,1155.1,425z"/>
		<path fill="#C8EAFB" d="M1222.6,747.6c-0.5-0.2-1-0.1-1.4,0.2c0,0-0.1,0.1-0.1,0.1c-0.4,0.4-0.7,0.9-0.5,1.5l2.8,13.5
			c0.1,0.5,0.5,0.9,0.9,1.1l0.1,0c0.2,0.1,0.4,0.1,0.6,0.1c0.3,0,0.7-0.1,1-0.3c0.4-0.4,0.6-0.9,0.5-1.5l-2.9-13.6
			C1223.5,748.2,1223.1,747.8,1222.6,747.6z"/>
		<path fill="#C8EAFB" d="M515.4,372.6c-0.5-0.2-1-0.1-1.4,0.2l-0.4,0.3c-0.5,0.3-0.8,1-0.6,1.6c11.2,53.2,22.5,106.6,33.8,160.2
			c0.1,0.7,0.7,1.1,1.4,1.2l0.2,0c0.1,0,0.2,0,0.3,0c0,0,0.1,0,0.1,0c0.4,0,0.8-0.2,1.1-0.5c0.3-0.4,0.4-0.8,0.3-1.3l-33.9-160.5
			C516.2,373.2,515.8,372.8,515.4,372.6z"/>
		<path fill="#C8EAFB" d="M555.6,562.9c-0.4-0.2-0.9-0.2-1.4,0.1c-0.1,0.1-0.3,0.2-0.4,0.2c-0.6,0.3-0.9,1-0.8,1.6l1.6,7.7
			c0.1,0.5,0.5,1,1,1.1c0.2,0,0.3,0.1,0.5,0.1c0.4,0,0.7-0.1,1-0.4l0.4-0.4c0.4-0.4,0.6-0.9,0.5-1.4l-1.6-7.5
			C556.4,563.5,556.1,563.1,555.6,562.9z"/>
		<path fill="#C8EAFB" d="M688.5,227l-0.3-0.1c-0.5-0.1-1,0-1.4,0.4c-0.4,0.4-0.5,0.9-0.4,1.4l13.4,64.1c0.1,0.6,0.6,1.1,1.2,1.2
			c0.1,0,0.2,0,0.2,0c0.5,0,1-0.3,1.3-0.8l0.3-0.5c0.2-0.3,0.2-0.7,0.2-1l-13.4-63.4C689.5,227.6,689,227.1,688.5,227z"/>
		<path fill="#B6D88C" d="M457.5,1420.7c53.2,0,90.9,21.5,109.6,45.5h33.3h199.3h33.3c18.7-24,56.4-45.5,109.6-45.5
			c12.2,0,22.7,1.1,32.6,3v-30.1h2.4c-13.3-0.4-26.7-1.7-40-4.1c-1.2-0.2-2.3-0.4-3.4-0.7c-0.4-0.1-0.7-0.2-1.1-0.3
			c-0.7-0.2-1.5-0.4-2.2-0.5c-0.4-0.1-0.9-0.3-1.3-0.4c-0.7-0.2-1.3-0.4-1.9-0.6c-0.5-0.1-0.9-0.3-1.4-0.5c-0.6-0.2-1.2-0.4-1.8-0.6
			c-0.5-0.2-0.9-0.4-1.4-0.5c-0.6-0.2-1.1-0.4-1.7-0.7c-0.5-0.2-0.9-0.4-1.4-0.6c-0.5-0.2-1.1-0.5-1.6-0.7c-0.5-0.2-0.9-0.4-1.4-0.7
			c-0.5-0.3-1-0.5-1.5-0.8c-0.5-0.2-0.9-0.5-1.3-0.7c-0.5-0.3-1-0.5-1.5-0.8c-0.4-0.3-0.9-0.5-1.3-0.8c-0.5-0.3-0.9-0.6-1.4-0.9
			c-0.4-0.3-0.9-0.6-1.3-0.8c-0.4-0.3-0.9-0.6-1.3-0.9c-0.4-0.3-0.8-0.6-1.2-0.9c-0.4-0.3-0.8-0.6-1.2-0.9c-0.4-0.3-0.8-0.6-1.2-1
			c-0.4-0.3-0.8-0.6-1.2-1c-0.4-0.3-0.8-0.7-1.2-1c-0.4-0.3-0.7-0.7-1.1-1c-0.4-0.4-0.7-0.7-1.1-1.1c-0.3-0.3-0.7-0.7-1-1
			c-0.4-0.4-0.7-0.8-1.1-1.1c-0.3-0.3-0.6-0.7-0.9-1.1c-0.3-0.4-0.7-0.8-1-1.2c-0.3-0.4-0.6-0.7-0.9-1.1c-0.3-0.4-0.7-0.8-1-1.2
			c-0.3-0.4-0.5-0.7-0.8-1.1c-0.3-0.4-0.6-0.9-0.9-1.3c-0.2-0.4-0.5-0.7-0.7-1.1c-0.3-0.5-0.6-0.9-0.9-1.4c-0.2-0.4-0.4-0.7-0.6-1.1
			c-0.3-0.5-0.5-1-0.8-1.4c-0.2-0.3-0.4-0.7-0.5-1.1c-0.3-0.5-0.5-1-0.8-1.5c-0.2-0.3-0.3-0.7-0.4-1c-0.2-0.5-0.5-1.1-0.7-1.6
			c-0.1-0.3-0.2-0.6-0.4-0.9c-0.2-0.6-0.4-1.1-0.6-1.7c-0.1-0.3-0.2-0.5-0.3-0.8c-0.2-0.6-0.4-1.3-0.6-1.9c0-0.2-0.1-0.3-0.1-0.5
			c-1.1-4.2-1.7-8.5-1.8-12.8c0-0.2,0-0.4,0-0.5c0-0.7,0-1.4,0.1-2.1c0-0.3,0-0.5,0-0.8c0-0.7,0.1-1.3,0.2-2c0-0.3,0.1-0.6,0.1-0.9
			c0.1-0.6,0.2-1.3,0.3-1.9c0-0.3,0.1-0.5,0.1-0.8c0,0,0,0,0,0c0.2-1.2,0.5-2.4,0.8-3.6l38.2-151.6
			c-98.5,43.5-60.1,251.6-175.2,251.6c-37.1,0-65.3-23.2-91.6-53c-1.4-1.6-2.7-3.1-4.1-4.7c-44.7-52.2-84.8-121-155.2-122.2
			l20.1,79.8c0.3,1.2,0.6,2.4,0.8,3.6c0,0,0,0,0,0c0,0.3,0.1,0.5,0.1,0.8c0.1,0.6,0.2,1.3,0.3,1.9c0,0.3,0.1,0.6,0.1,0.9
			c0.1,0.7,0.1,1.3,0.2,2c0,0.3,0,0.5,0,0.8c0,0.7,0.1,1.4,0.1,2.1c0,0.2,0,0.4,0,0.5c0,4.4-0.6,8.7-1.8,12.8c0,0.2-0.1,0.4-0.1,0.5
			c-0.2,0.6-0.4,1.3-0.6,1.9c-0.1,0.3-0.2,0.5-0.3,0.8c-0.2,0.6-0.4,1.2-0.6,1.7c-0.1,0.3-0.2,0.6-0.4,0.9c-0.2,0.5-0.5,1.1-0.7,1.6
			c-0.1,0.3-0.3,0.7-0.4,1c-0.2,0.5-0.5,1-0.8,1.5c-0.2,0.4-0.3,0.7-0.5,1c-0.3,0.5-0.5,1-0.8,1.4c-0.2,0.4-0.4,0.7-0.6,1.1
			c-0.3,0.5-0.6,0.9-0.9,1.4c-0.2,0.4-0.5,0.7-0.7,1.1c-0.3,0.4-0.6,0.9-0.9,1.3c-0.3,0.4-0.5,0.7-0.8,1.1c-0.3,0.4-0.6,0.8-1,1.2
			c-0.3,0.4-0.6,0.7-0.9,1.1c-0.3,0.4-0.7,0.8-1,1.2c-0.3,0.4-0.6,0.7-0.9,1c-0.3,0.4-0.7,0.8-1.1,1.1c-0.3,0.3-0.7,0.7-1,1
			c-0.4,0.4-0.7,0.7-1.1,1.1c-0.4,0.3-0.7,0.7-1.1,1c-0.4,0.3-0.8,0.7-1.2,1c-0.4,0.3-0.8,0.7-1.2,1c-0.4,0.3-0.8,0.6-1.2,1
			c-0.4,0.3-0.8,0.6-1.2,0.9c-0.4,0.3-0.8,0.6-1.2,0.9c-0.4,0.3-0.9,0.6-1.3,0.9c-0.4,0.3-0.8,0.6-1.3,0.8c-0.5,0.3-0.9,0.6-1.4,0.9
			c-0.4,0.3-0.9,0.5-1.3,0.8c-0.5,0.3-1,0.5-1.5,0.8c-0.4,0.2-0.9,0.5-1.3,0.7c-0.5,0.3-1,0.5-1.5,0.8c-0.5,0.2-0.9,0.4-1.4,0.7
			c-0.5,0.2-1.1,0.5-1.6,0.7c-0.5,0.2-0.9,0.4-1.4,0.6c-0.6,0.2-1.1,0.4-1.7,0.7c-0.5,0.2-0.9,0.4-1.4,0.5c-0.6,0.2-1.2,0.4-1.8,0.6
			c-0.5,0.2-0.9,0.3-1.4,0.5c-0.6,0.2-1.3,0.4-1.9,0.6c-0.4,0.1-0.9,0.3-1.3,0.4c-0.7,0.2-1.5,0.4-2.2,0.5c-0.4,0.1-0.7,0.2-1.1,0.3
			c-1.1,0.2-2.3,0.5-3.4,0.7c-13.3,2.4-26.7,3.7-40,4.1h2.4v30.1C434.8,1421.8,445.3,1420.7,457.5,1420.7z"/>
		<path fill="#B6D88C" d="M0,1314v57.6c12.4-3.8,25.4-5.9,38.2-5.9c8.4,0,16.1,1.1,23.3,3v-48.1h3.9c-8.2-0.2-16.4-0.7-24.5-1.3
			c-5.5-0.5-10.9-1-16.4-1.7C16.4,1316.6,8.2,1315.4,0,1314z"/>
		<path fill="#B6D88C" d="M1114.6,1449c5.3,0,10.4-0.1,15.4-0.3v-83h2.9c-4.4-0.1-8.7-0.3-13.1-0.6c-2.4-0.2-4.9-0.4-7.3-0.6
			c-9.8-0.9-19.6-2.2-29.4-3.9c0,0,0,0,0,0c-1.4-0.2-2.7-0.5-4-0.8c-0.1,0-0.1,0-0.2,0c0,0-0.1,0-0.1,0c-0.1,0.1-0.1,0.2-0.2,0.3
			c-0.2,0.4-0.5,0.7-0.7,1.1c-0.3,0.4-0.6,0.9-0.9,1.3c-0.3,0.4-0.5,0.7-0.8,1.1c-0.3,0.4-0.6,0.8-1,1.2c-0.3,0.4-0.6,0.7-0.9,1.1
			c-0.3,0.4-0.7,0.8-1,1.2c-0.3,0.4-0.6,0.7-0.9,1c-0.3,0.4-0.7,0.8-1.1,1.1c-0.3,0.3-0.7,0.7-1,1c-0.4,0.4-0.7,0.7-1.1,1.1
			c-0.4,0.3-0.7,0.7-1.1,1c-0.4,0.3-0.8,0.7-1.2,1c-0.4,0.3-0.8,0.7-1.2,1c-0.4,0.3-0.8,0.6-1.2,1c-0.4,0.3-0.8,0.6-1.2,0.9
			c-0.4,0.3-0.8,0.6-1.2,0.9c-0.4,0.3-0.9,0.6-1.3,0.9c-0.4,0.3-0.8,0.6-1.3,0.8c-0.5,0.3-0.9,0.6-1.4,0.9c-0.4,0.3-0.9,0.5-1.3,0.8
			c-0.5,0.3-1,0.5-1.5,0.8c-0.4,0.2-0.9,0.5-1.3,0.7c-0.5,0.3-1,0.5-1.5,0.8c-0.5,0.2-0.9,0.4-1.4,0.7c-0.5,0.2-1.1,0.5-1.6,0.7
			c-0.5,0.2-0.9,0.4-1.4,0.6c-0.6,0.2-1.1,0.4-1.7,0.7c-0.5,0.2-0.9,0.4-1.4,0.5c-0.6,0.2-1.2,0.4-1.8,0.6c-0.5,0.2-0.9,0.3-1.4,0.5
			c-0.6,0.2-1.3,0.4-1.9,0.6c-0.4,0.1-0.9,0.3-1.3,0.4c-0.7,0.2-1.5,0.4-2.2,0.5c-0.4,0.1-0.7,0.2-1.1,0.3c-1.1,0.2-2.3,0.5-3.4,0.7
			c-13.3,2.4-26.7,3.7-40,4.1h2.4v34.5C1025,1436.5,1054.4,1449,1114.6,1449z"/>
		<path fill="#B6D88C" d="M246.1,1447v-81.3h2.9c-4.2-0.1-8.4-0.3-12.7-0.6c-2.8-0.2-5.7-0.4-8.5-0.7c-9.6-0.9-19.1-2.1-28.7-3.8
			c0,0,0,0,0,0c-1.4-0.2-2.7-0.5-4-0.8c-0.1,0-0.1,0-0.2,0c-1.3-0.3-2.5-0.6-3.8-0.9c-0.1,0-0.2-0.1-0.3-0.1c-1.2-0.3-2.4-0.7-3.6-1
			c-0.1,0-0.3-0.1-0.4-0.1c-1.2-0.4-2.3-0.8-3.5-1.2c-0.2-0.1-0.3-0.1-0.5-0.2c-1.1-0.4-2.2-0.8-3.3-1.3c-0.2-0.1-0.3-0.1-0.5-0.2
			c-1.1-0.4-2.2-0.9-3.2-1.4c-0.2-0.1-0.3-0.1-0.5-0.2c-1-0.5-2.1-1-3.1-1.5c-0.1-0.1-0.3-0.2-0.4-0.2c-1-0.5-2-1.1-3-1.6
			c-0.1-0.1-0.3-0.2-0.4-0.2c-1-0.6-2-1.2-2.9-1.8c-0.1-0.1-0.2-0.1-0.3-0.2c-1-0.6-1.9-1.3-2.9-1.9c-0.1-0.1-0.2-0.1-0.3-0.2
			c-1-0.7-1.9-1.4-2.8-2.1c-0.1,0-0.1-0.1-0.2-0.1c-1-0.7-1.9-1.5-2.8-2.2c0,0,0,0,0,0c-2.1-1.8-4.1-3.7-6-5.6
			c-0.6-0.7-1.2-1.3-1.8-2c0,0,0,0,0,0c-0.8-0.9-1.6-1.8-2.3-2.7c0,0,0-0.1-0.1-0.1c-0.7-0.9-1.4-1.8-2.1-2.7c0,0-0.1-0.1-0.1-0.1
			c-0.7-0.9-1.3-1.8-2-2.8c0,0-0.1-0.1-0.1-0.1c-0.6-0.9-1.2-1.9-1.8-2.9c0,0-0.1-0.1-0.1-0.1c-0.6-1-1.1-1.9-1.6-2.9
			c0,0,0-0.1-0.1-0.1c-0.4-0.7-0.7-1.4-1.1-2.2c-7,1-14.1,1.8-21.1,2.4c-9,0.8-17.9,1.3-26.9,1.5H93v61.7
			C129.3,1403.4,165.5,1438.3,246.1,1447z"/>
		<path fill="#B6D88C" d="M1361.8,1365.7c12.8,0,25.8,2.1,38.2,5.9V1314c-8.2,1.4-16.4,2.7-24.5,3.6c-13.6,1.6-27.3,2.6-40.9,3h3.9
			v48.1C1345.7,1366.8,1353.4,1365.7,1361.8,1365.7z"/>
		<path fill="#B6D88C" d="M1307,1382.2v-61.7h3.9c-12.2-0.3-24.4-1.1-36.6-2.5c-3.8-0.4-7.6-0.9-11.5-1.4c-0.3,0.7-0.7,1.4-1.1,2.2
			c0,0,0,0.1-0.1,0.1c-0.5,1-1.1,2-1.6,2.9c0,0-0.1,0.1-0.1,0.1c-0.6,1-1.2,1.9-1.8,2.9c0,0-0.1,0.1-0.1,0.1c-0.6,0.9-1.3,1.9-2,2.8
			c0,0-0.1,0.1-0.1,0.1c-0.7,0.9-1.4,1.8-2.1,2.7c0,0,0,0.1-0.1,0.1c-0.7,0.9-1.5,1.8-2.3,2.7c0,0,0,0,0,0c-1.2,1.3-2.5,2.6-3.8,3.9
			c-1.3,1.3-2.7,2.5-4.1,3.7c0,0,0,0,0,0c-0.9,0.8-1.8,1.5-2.8,2.2c-0.1,0-0.1,0.1-0.2,0.1c-0.9,0.7-1.9,1.4-2.8,2.1
			c-0.1,0.1-0.2,0.1-0.3,0.2c-0.9,0.7-1.9,1.3-2.9,1.9c-0.1,0.1-0.2,0.1-0.3,0.2c-1,0.6-1.9,1.2-2.9,1.8c-0.1,0.1-0.3,0.2-0.4,0.2
			c-1,0.6-2,1.1-3,1.6c-0.1,0.1-0.3,0.2-0.4,0.2c-1,0.5-2.1,1-3.1,1.5c-0.2,0.1-0.3,0.1-0.5,0.2c-1.1,0.5-2.1,0.9-3.2,1.4
			c-0.2,0.1-0.3,0.1-0.5,0.2c-1.1,0.4-2.2,0.9-3.3,1.3c-0.2,0.1-0.3,0.1-0.5,0.2c-1.1,0.4-2.3,0.8-3.5,1.2c-0.1,0-0.3,0.1-0.4,0.1
			c-1.2,0.4-2.4,0.7-3.6,1c-0.1,0-0.2,0.1-0.3,0.1c-1.2,0.3-2.5,0.6-3.8,0.9c-0.1,0-0.1,0-0.2,0c-1.3,0.3-2.7,0.6-4,0.8c0,0,0,0,0,0
			c-9.6,1.7-19.1,3-28.7,3.8c-2.8,0.3-5.7,0.5-8.5,0.7c-4.2,0.3-8.4,0.5-12.7,0.6h2.9v81.3C1234.5,1438.3,1270.7,1403.4,1307,1382.2
			z"/>
		<path fill="#B6D88C" d="M285.4,1449c60.3,0,89.6-12.5,120.4-20.9v-34.5h2.4c-13.3-0.4-26.7-1.7-40-4.1c-1.2-0.2-2.3-0.4-3.4-0.7
			c-0.4-0.1-0.7-0.2-1.1-0.3c-0.7-0.2-1.5-0.4-2.2-0.5c-0.4-0.1-0.9-0.3-1.3-0.4c-0.7-0.2-1.3-0.4-1.9-0.6c-0.5-0.1-0.9-0.3-1.4-0.5
			c-0.6-0.2-1.2-0.4-1.8-0.6c-0.5-0.2-0.9-0.4-1.4-0.5c-0.6-0.2-1.1-0.4-1.7-0.7c-0.5-0.2-0.9-0.4-1.4-0.6c-0.5-0.2-1.1-0.5-1.6-0.7
			c-0.5-0.2-0.9-0.4-1.4-0.7c-0.5-0.3-1-0.5-1.5-0.8c-0.5-0.2-0.9-0.5-1.3-0.7c-0.5-0.3-1-0.5-1.5-0.8c-0.4-0.3-0.9-0.5-1.3-0.8
			c-0.5-0.3-0.9-0.6-1.4-0.9c-0.4-0.3-0.9-0.6-1.3-0.8c-0.4-0.3-0.9-0.6-1.3-0.9c-0.4-0.3-0.8-0.6-1.2-0.9c-0.4-0.3-0.8-0.6-1.2-0.9
			c-0.4-0.3-0.8-0.6-1.2-1c-0.4-0.3-0.8-0.6-1.2-1c-0.4-0.3-0.8-0.7-1.2-1c-0.4-0.3-0.7-0.7-1.1-1c-0.4-0.4-0.7-0.7-1.1-1.1
			c-0.3-0.3-0.7-0.7-1-1c-0.4-0.4-0.7-0.8-1.1-1.1c-0.3-0.3-0.6-0.7-0.9-1c-0.3-0.4-0.7-0.8-1-1.2c-0.3-0.4-0.6-0.7-0.9-1.1
			c-0.3-0.4-0.7-0.8-1-1.2c-0.3-0.4-0.5-0.7-0.8-1.1c-0.3-0.4-0.6-0.9-0.9-1.3c-0.2-0.4-0.5-0.7-0.7-1.1c-0.1-0.1-0.1-0.2-0.2-0.3
			c0,0-0.1,0-0.1,0c-0.1,0-0.1,0-0.2,0c-1.3,0.3-2.7,0.6-4,0.8c0,0,0,0,0,0c-9.8,1.7-19.6,3-29.4,3.9c-2.4,0.2-4.9,0.4-7.3,0.6
			c-4.4,0.3-8.7,0.5-13.1,0.6h2.9v83C275,1448.9,280.1,1449,285.4,1449z"/>
		<path fill="#E4E98C" d="M882.3,1332.3c0,4.4,0.6,8.7,1.8,12.8C883,1340.9,882.4,1336.6,882.3,1332.3z"/>
		<path fill="#E4E98C" d="M1245.3,1285.3c51.6,9.1,103.1,9.1,154.7,0V850l-57.1-226.7c-5.3-20.9-35-20.9-40.3,0l-49,194.4l-1.7,6.7
			l-48.9,194l-41-162.8c-0.9-3.4-2.4-6.2-4.3-8.5c-1.1-1.3-2.4-2.5-3.8-3.5c-10.9-7.5-28.3-3.6-32.2,12l-34.9,138.7l-1.7,6.9
			l-39.9,158.4l-44.3-176c-4.2-16.8-28.1-16.8-32.4,0L922.1,1168l-38.2,151.6c-0.3,1.2-0.6,2.4-0.8,3.6
			c4.2,23.6,25.2,43.6,54.3,48.8c31.5,5.6,63,5.6,94.5,0c13.6-2.4,25.5-8.1,34.7-15.8c0.1,0,0.2,0.1,0.3,0.1
			c-35.6-12.9-57.2-44.9-51.3-78.1c5.2,29.4,31.3,54.3,67.6,60.7c39.2,6.9,78.4,6.9,117.6,0c19.6-3.5,36.2-12.3,48.1-24.4
			c-1.2-0.2-2.4-0.4-3.6-0.6c-59.3-10.5-97.9-58.5-89-108.6C1163.1,1244,1197.5,1276.8,1245.3,1285.3z"/>
		<path fill="#F3BA64" d="M975.1,1393.6v30.1c6.6,1.2,12.9,2.8,19.2,4.5v-34.5h-2.4h-14.4H975.1z"/>
		<path fill="#E4E98C" d="M1243.7,1341c1.4-1.2,2.8-2.4,4.1-3.7C1246.5,1338.6,1245.1,1339.9,1243.7,1341z"/>
		<path fill="#E4E98C" d="M1262.9,1316.7C1262.9,1316.7,1262.9,1316.7,1262.9,1316.7c-0.4,0.7-0.7,1.4-1.1,2.2
			C1262.2,1318.1,1262.5,1317.4,1262.9,1316.7z"/>
		<path fill="#E4E98C" d="M1078.8,1359.8c0,0,0.1,0,0.1,0c-1.3-0.3-2.5-0.6-3.8-0.9C1076.3,1359.2,1077.5,1359.5,1078.8,1359.8
			c-0.1,0.1-0.1,0.2-0.2,0.3C1078.6,1360,1078.7,1359.9,1078.8,1359.8z"/>
		<path fill="#F3BA64" d="M1130,1365.7v83c8.4-0.3,16.3-0.9,23.9-1.7v-81.3h-2.9h-18H1130z"/>
		<path fill="#E4E98C" d="M1334.6,1320.6c11.9-0.3,23.9-1.1,35.8-2.4C1358.4,1319.5,1346.5,1320.3,1334.6,1320.6L1334.6,1320.6z"/>
		<path fill="#CFD87D" d="M1079.1,1359.8c1.3,0.3,2.7,0.6,4,0.8c0,0,0,0,0,0c9.8,1.7,19.6,3,29.4,3.9c2.4,0.2,4.9,0.4,7.3,0.6
			c4.4,0.3,8.7,0.5,13.1,0.6h18c4.2-0.1,8.4-0.3,12.7-0.6c2.8-0.2,5.7-0.4,8.5-0.7c9.6-0.9,19.1-2.1,28.7-3.8c0,0,0,0,0,0
			c1.4-0.2,2.7-0.5,4-0.8c0.1,0,0.1,0,0.2,0c1.3-0.3,2.5-0.6,3.8-0.9c0.1,0,0.2-0.1,0.3-0.1c1.2-0.3,2.4-0.7,3.6-1
			c0.1,0,0.3-0.1,0.4-0.1c1.2-0.4,2.3-0.8,3.5-1.2c0.2-0.1,0.3-0.1,0.5-0.2c1.1-0.4,2.2-0.8,3.3-1.3c0.2-0.1,0.3-0.1,0.5-0.2
			c1.1-0.4,2.2-0.9,3.2-1.4c0.2-0.1,0.3-0.1,0.5-0.2c1.1-0.5,2.1-1,3.1-1.5c0.1-0.1,0.3-0.2,0.4-0.2c1-0.5,2-1.1,3-1.6
			c0.1-0.1,0.3-0.2,0.4-0.2c1-0.6,2-1.2,2.9-1.8c0.1-0.1,0.2-0.1,0.3-0.2c1-0.6,1.9-1.3,2.9-1.9c0.1-0.1,0.2-0.1,0.3-0.2
			c1-0.7,1.9-1.4,2.8-2.1c0.1,0,0.1-0.1,0.2-0.1c1-0.7,1.9-1.5,2.8-2.2c0,0,0,0,0,0c1.4-1.2,2.8-2.4,4.1-3.7s2.6-2.6,3.8-3.9
			c0,0,0,0,0,0c0.8-0.9,1.6-1.8,2.3-2.7c0,0,0-0.1,0.1-0.1c0.7-0.9,1.4-1.8,2.1-2.7c0,0,0.1-0.1,0.1-0.1c0.7-0.9,1.3-1.8,2-2.8
			c0,0,0.1-0.1,0.1-0.1c0.6-0.9,1.2-1.9,1.8-2.9c0,0,0.1-0.1,0.1-0.1c0.6-1,1.1-1.9,1.6-2.9c0,0,0-0.1,0.1-0.1
			c0.4-0.7,0.7-1.4,1.1-2.2c0,0,0,0,0,0c3.8,0.5,7.6,1,11.5,1.4c12.2,1.3,24.4,2.2,36.6,2.5h23.7c13.6-0.4,27.3-1.4,40.9-3
			c8.2-1,16.4-2.2,24.5-3.6v-28.6c-51.6,9.1-103.1,9.1-154.7,0c-47.8-8.4-82.2-41.3-89-80c-8.9,50.1,29.8,98.2,89,108.6
			c1.2,0.2,2.4,0.4,3.6,0.6c-12,12-28.6,20.9-48.1,24.4c-39.2,6.9-78.4,6.9-117.6,0c-36.3-6.4-62.4-31.4-67.6-60.7
			c-5.9,33.2,15.7,65.3,51.3,78.1c-0.1,0-0.2-0.1-0.3-0.1c-9.2,7.8-21,13.4-34.7,15.8c-31.5,5.6-63,5.6-94.5,0
			c-29.1-5.2-50.1-25.2-54.3-48.8c0,0,0,0,0,0c0,0.3-0.1,0.5-0.1,0.8c-0.1,0.6-0.2,1.3-0.3,1.9c0,0.3-0.1,0.6-0.1,0.9
			c-0.1,0.7-0.1,1.3-0.2,2c0,0.3,0,0.5,0,0.8c0,0.7-0.1,1.4-0.1,2.1c0,0.2,0,0.4,0,0.5c0,4.4,0.6,8.7,1.8,12.8
			c0,0.2,0.1,0.4,0.1,0.5c0.2,0.6,0.4,1.3,0.6,1.9c0.1,0.3,0.2,0.5,0.3,0.8c0.2,0.6,0.4,1.2,0.6,1.7c0.1,0.3,0.2,0.6,0.4,0.9
			c0.2,0.5,0.5,1.1,0.7,1.6c0.1,0.3,0.3,0.7,0.4,1c0.2,0.5,0.5,1,0.8,1.5c0.2,0.4,0.4,0.7,0.5,1.1c0.3,0.5,0.5,1,0.8,1.4
			c0.2,0.4,0.4,0.7,0.6,1.1c0.3,0.5,0.6,0.9,0.9,1.4c0.2,0.4,0.5,0.7,0.7,1.1c0.3,0.4,0.6,0.9,0.9,1.3c0.3,0.4,0.5,0.7,0.8,1.1
			c0.3,0.4,0.6,0.8,1,1.2c0.3,0.4,0.6,0.7,0.9,1.1c0.3,0.4,0.7,0.8,1,1.2c0.3,0.4,0.6,0.7,0.9,1.1c0.3,0.4,0.7,0.8,1.1,1.1
			c0.3,0.3,0.7,0.7,1,1c0.4,0.4,0.7,0.7,1.1,1.1c0.4,0.3,0.7,0.7,1.1,1c0.4,0.3,0.8,0.7,1.2,1c0.4,0.3,0.8,0.7,1.2,1
			c0.4,0.3,0.8,0.6,1.2,1c0.4,0.3,0.8,0.6,1.2,0.9c0.4,0.3,0.8,0.6,1.2,0.9c0.4,0.3,0.9,0.6,1.3,0.9c0.4,0.3,0.8,0.6,1.3,0.8
			c0.5,0.3,0.9,0.6,1.4,0.9c0.4,0.3,0.9,0.5,1.3,0.8c0.5,0.3,1,0.5,1.5,0.8c0.4,0.2,0.9,0.5,1.3,0.7c0.5,0.3,1,0.5,1.5,0.8
			c0.5,0.2,0.9,0.4,1.4,0.7c0.5,0.2,1.1,0.5,1.6,0.7c0.5,0.2,0.9,0.4,1.4,0.6c0.6,0.2,1.1,0.4,1.7,0.7c0.5,0.2,0.9,0.4,1.4,0.5
			c0.6,0.2,1.2,0.4,1.8,0.6c0.5,0.2,0.9,0.3,1.4,0.5c0.6,0.2,1.3,0.4,1.9,0.6c0.4,0.1,0.9,0.3,1.3,0.4c0.7,0.2,1.5,0.4,2.2,0.5
			c0.4,0.1,0.7,0.2,1.1,0.3c1.1,0.2,2.3,0.5,3.4,0.7c13.3,2.4,26.7,3.7,40,4.1h14.4c13.3-0.4,26.7-1.7,40-4.1
			c1.2-0.2,2.3-0.4,3.4-0.7c0.4-0.1,0.7-0.2,1.1-0.3c0.7-0.2,1.5-0.4,2.2-0.5c0.4-0.1,0.9-0.3,1.3-0.4c0.7-0.2,1.3-0.4,1.9-0.6
			c0.5-0.1,0.9-0.3,1.4-0.5c0.6-0.2,1.2-0.4,1.8-0.6c0.5-0.2,0.9-0.4,1.4-0.5c0.6-0.2,1.1-0.4,1.7-0.7c0.5-0.2,0.9-0.4,1.4-0.6
			c0.5-0.2,1.1-0.5,1.6-0.7c0.5-0.2,0.9-0.4,1.4-0.7c0.5-0.3,1-0.5,1.5-0.8c0.5-0.2,0.9-0.5,1.3-0.7c0.5-0.3,1-0.5,1.5-0.8
			c0.4-0.3,0.9-0.5,1.3-0.8c0.5-0.3,0.9-0.6,1.4-0.9c0.4-0.3,0.9-0.6,1.3-0.8c0.4-0.3,0.9-0.6,1.3-0.9c0.4-0.3,0.8-0.6,1.2-0.9
			c0.4-0.3,0.8-0.6,1.2-0.9c0.4-0.3,0.8-0.6,1.2-1c0.4-0.3,0.8-0.6,1.2-1c0.4-0.3,0.8-0.7,1.2-1c0.4-0.3,0.7-0.7,1.1-1
			c0.4-0.4,0.7-0.7,1.1-1.1c0.3-0.3,0.7-0.7,1-1c0.4-0.4,0.7-0.8,1.1-1.1c0.3-0.3,0.6-0.7,0.9-1c0.3-0.4,0.7-0.8,1-1.2
			c0.3-0.4,0.6-0.7,0.9-1.1c0.3-0.4,0.7-0.8,1-1.2c0.3-0.4,0.5-0.7,0.8-1.1c0.3-0.4,0.6-0.9,0.9-1.3c0.2-0.4,0.5-0.7,0.7-1.1
			c0.1-0.1,0.1-0.2,0.2-0.3c-1.2-0.3-2.4-0.6-3.7-0.9c1.2,0.3,2.5,0.6,3.8,0.9C1079,1359.8,1079,1359.8,1079.1,1359.8z"/>
		<path fill="#F3BA64" d="M1310.9,1320.6h-3.9v61.7c10.1-5.9,20.3-10.7,31.4-13.6v-48.1h-3.9h0H1310.9z"/>
		<path fill="#E4E98C" d="M515.9,1345.1c1.1-4.2,1.7-8.5,1.8-12.8C517.6,1336.6,517,1340.9,515.9,1345.1z"/>
		<path fill="#E4E98C" d="M321.1,1359.8c0,0,0.1,0,0.1,0c0.1,0.1,0.1,0.2,0.2,0.3c-0.1-0.1-0.1-0.2-0.2-0.3c1.2-0.3,2.4-0.6,3.7-0.9
			C323.6,1359.2,322.4,1359.5,321.1,1359.8z"/>
		<path fill="#F3BA64" d="M405.7,1393.6v34.5c6.2-1.7,12.5-3.2,19.2-4.5v-30.1h-2.4h-14.4H405.7z"/>
		<path fill="#E4E98C" d="M138.2,1318.8c-0.4-0.7-0.7-1.4-1.1-2.2c0,0,0,0,0,0C137.5,1317.4,137.8,1318.1,138.2,1318.8z"/>
		<path fill="#E4E98C" d="M150.3,1335.4c1.9,2,3.9,3.8,6,5.6C154.2,1339.3,152.2,1337.4,150.3,1335.4z"/>
		<path fill="#F3BA64" d="M246.1,1365.7v81.3c7.5,0.8,15.5,1.4,23.9,1.7v-83h-2.9h-18H246.1z"/>
		<path fill="#E4E98C" d="M40.9,1319.2c-5.5-0.5-10.9-1-16.4-1.7C30,1318.2,35.4,1318.8,40.9,1319.2z"/>
		<path fill="#E4E98C" d="M65.4,1320.6c-6.1-0.2-12.3-0.5-18.4-0.9C53.2,1320.1,59.3,1320.4,65.4,1320.6L65.4,1320.6z"/>
		<path fill="#E4E98C" d="M333.2,1356.3c0.1,0,0.2-0.1,0.3-0.1c9.2,7.8,21,13.4,34.7,15.8c31.5,5.6,63,5.6,94.5,0
			c29.1-5.2,50.1-25.2,54.3-48.8c-0.2-1.2-0.5-2.4-0.8-3.6l-20.1-79.8l-64.5-256.1c-4.2-16.8-28.1-16.8-32.4,0l-44.3,176l-76.6-304
			c-5.3-20.9-35-20.9-40.3,0l-41,162.8L97.4,623.4c-5.3-20.9-35-20.9-40.3,0L0,850v435.3c51.6,9.1,103.1,9.1,154.7,0
			c47.8-8.4,82.2-41.3,89-80c8.9,50.1-29.8,98.2-89,108.6c-1.2,0.2-2.4,0.4-3.6,0.6c12,12,28.6,20.9,48.1,24.4
			c39.2,6.9,78.4,6.9,117.6,0c36.3-6.4,62.4-31.4,67.6-60.7C390.3,1311.4,368.7,1343.4,333.2,1356.3z"/>
		<path fill="#CFD87D" d="M321.4,1360.1c0.2,0.4,0.5,0.7,0.7,1.1c0.3,0.4,0.6,0.9,0.9,1.3c0.3,0.4,0.5,0.7,0.8,1.1
			c0.3,0.4,0.6,0.8,1,1.2c0.3,0.4,0.6,0.7,0.9,1.1c0.3,0.4,0.7,0.8,1,1.2c0.3,0.4,0.6,0.7,0.9,1c0.3,0.4,0.7,0.8,1.1,1.1
			c0.3,0.3,0.7,0.7,1,1c0.4,0.4,0.7,0.7,1.1,1.1c0.4,0.3,0.7,0.7,1.1,1c0.4,0.3,0.8,0.7,1.2,1c0.4,0.3,0.8,0.7,1.2,1
			c0.4,0.3,0.8,0.6,1.2,1c0.4,0.3,0.8,0.6,1.2,0.9c0.4,0.3,0.8,0.6,1.2,0.9c0.4,0.3,0.9,0.6,1.3,0.9c0.4,0.3,0.8,0.6,1.3,0.8
			c0.5,0.3,0.9,0.6,1.4,0.9c0.4,0.3,0.9,0.5,1.3,0.8c0.5,0.3,1,0.5,1.5,0.8c0.4,0.2,0.9,0.5,1.3,0.7c0.5,0.3,1,0.5,1.5,0.8
			c0.5,0.2,0.9,0.4,1.4,0.7c0.5,0.2,1.1,0.5,1.6,0.7c0.5,0.2,0.9,0.4,1.4,0.6c0.6,0.2,1.1,0.4,1.7,0.7c0.5,0.2,0.9,0.4,1.4,0.5
			c0.6,0.2,1.2,0.4,1.8,0.6c0.5,0.2,0.9,0.3,1.4,0.5c0.6,0.2,1.3,0.4,1.9,0.6c0.4,0.1,0.9,0.3,1.3,0.4c0.7,0.2,1.5,0.4,2.2,0.5
			c0.4,0.1,0.7,0.2,1.1,0.3c1.1,0.2,2.3,0.5,3.4,0.7c13.3,2.4,26.7,3.7,40,4.1h14.4c13.3-0.4,26.7-1.7,40-4.1
			c1.2-0.2,2.3-0.4,3.4-0.7c0.4-0.1,0.7-0.2,1.1-0.3c0.7-0.2,1.5-0.4,2.2-0.5c0.4-0.1,0.9-0.3,1.3-0.4c0.7-0.2,1.3-0.4,1.9-0.6
			c0.5-0.1,0.9-0.3,1.4-0.5c0.6-0.2,1.2-0.4,1.8-0.6c0.5-0.2,0.9-0.4,1.4-0.5c0.6-0.2,1.1-0.4,1.7-0.7c0.5-0.2,0.9-0.4,1.4-0.6
			c0.5-0.2,1.1-0.5,1.6-0.7c0.5-0.2,0.9-0.4,1.4-0.7c0.5-0.3,1-0.5,1.5-0.8c0.5-0.2,0.9-0.5,1.3-0.7c0.5-0.3,1-0.5,1.5-0.8
			c0.4-0.3,0.9-0.5,1.3-0.8c0.5-0.3,0.9-0.6,1.4-0.9c0.4-0.3,0.9-0.6,1.3-0.8c0.4-0.3,0.9-0.6,1.3-0.9c0.4-0.3,0.8-0.6,1.2-0.9
			c0.4-0.3,0.8-0.6,1.2-0.9c0.4-0.3,0.8-0.6,1.2-1c0.4-0.3,0.8-0.6,1.2-1c0.4-0.3,0.8-0.7,1.2-1c0.4-0.3,0.7-0.7,1.1-1
			c0.4-0.4,0.7-0.7,1.1-1.1c0.3-0.3,0.7-0.7,1-1c0.4-0.4,0.7-0.8,1.1-1.1c0.3-0.3,0.6-0.7,0.9-1c0.3-0.4,0.7-0.8,1-1.2
			c0.3-0.4,0.6-0.7,0.9-1.1c0.3-0.4,0.7-0.8,1-1.2c0.3-0.4,0.5-0.7,0.8-1.1c0.3-0.4,0.6-0.9,0.9-1.3c0.2-0.4,0.5-0.7,0.7-1.1
			c0.3-0.5,0.6-0.9,0.9-1.4c0.2-0.4,0.4-0.7,0.6-1.1c0.3-0.5,0.5-1,0.8-1.4c0.2-0.3,0.4-0.7,0.5-1c0.3-0.5,0.5-1,0.8-1.5
			c0.2-0.3,0.3-0.7,0.4-1c0.2-0.5,0.5-1.1,0.7-1.6c0.1-0.3,0.2-0.6,0.4-0.9c0.2-0.6,0.4-1.1,0.6-1.7c0.1-0.3,0.2-0.5,0.3-0.8
			c0.2-0.6,0.4-1.3,0.6-1.9c0-0.2,0.1-0.3,0.1-0.5c1.1-4.2,1.7-8.5,1.8-12.8c0-0.2,0-0.4,0-0.5c0-0.7,0-1.4-0.1-2.1
			c0-0.3,0-0.5,0-0.8c0-0.7-0.1-1.3-0.2-2c0-0.3-0.1-0.6-0.1-0.9c-0.1-0.6-0.2-1.3-0.3-1.9c0-0.3-0.1-0.5-0.1-0.8c0,0,0,0,0,0
			c-4.2,23.6-25.2,43.6-54.3,48.8c-31.5,5.6-63,5.6-94.5,0c-13.6-2.4-25.5-8.1-34.7-15.8c-0.1,0-0.2,0.1-0.3,0.1
			c35.6-12.9,57.2-44.9,51.3-78.1c-5.2,29.4-31.3,54.3-67.6,60.7c-39.2,6.9-78.4,6.9-117.6,0c-19.6-3.5-36.2-12.3-48.1-24.4
			c1.2-0.2,2.4-0.4,3.6-0.6c59.3-10.5,97.9-58.5,89-108.6c-6.9,38.7-41.2,71.6-89,80c-51.6,9.1-103.1,9.1-154.7,0v28.6
			c8.2,1.4,16.4,2.7,24.5,3.6c5.5,0.7,10.9,1.2,16.4,1.7c8.2,0.7,16.4,1.1,24.5,1.3h23.7c9-0.2,17.9-0.7,26.9-1.5
			c7-0.6,14.1-1.4,21.1-2.4c0,0,0,0,0,0c0.3,0.7,0.7,1.4,1.1,2.2c0,0,0,0.1,0.1,0.1c0.5,1,1.1,2,1.6,2.9c0,0,0.1,0.1,0.1,0.1
			c0.6,1,1.2,1.9,1.8,2.9c0,0,0.1,0.1,0.1,0.1c0.6,0.9,1.3,1.9,2,2.8c0,0,0.1,0.1,0.1,0.1c0.7,0.9,1.4,1.8,2.1,2.7
			c0,0,0,0.1,0.1,0.1c0.7,0.9,1.5,1.8,2.3,2.7c0,0,0,0,0,0c0.6,0.7,1.2,1.3,1.8,2c1.9,2,3.9,3.8,6,5.6c0,0,0,0,0,0
			c0.9,0.8,1.8,1.5,2.8,2.2c0.1,0,0.1,0.1,0.2,0.1c0.9,0.7,1.9,1.4,2.8,2.1c0.1,0.1,0.2,0.1,0.3,0.2c0.9,0.7,1.9,1.3,2.9,1.9
			c0.1,0.1,0.2,0.1,0.3,0.2c1,0.6,1.9,1.2,2.9,1.8c0.1,0.1,0.3,0.2,0.4,0.2c1,0.6,2,1.1,3,1.6c0.1,0.1,0.3,0.2,0.4,0.2
			c1,0.5,2.1,1,3.1,1.5c0.2,0.1,0.3,0.1,0.5,0.2c1.1,0.5,2.1,0.9,3.2,1.4c0.2,0.1,0.3,0.1,0.5,0.2c1.1,0.4,2.2,0.9,3.3,1.3
			c0.2,0.1,0.3,0.1,0.5,0.2c1.1,0.4,2.3,0.8,3.5,1.2c0.1,0,0.3,0.1,0.4,0.1c1.2,0.4,2.4,0.7,3.6,1c0.1,0,0.2,0.1,0.3,0.1
			c1.2,0.3,2.5,0.6,3.8,0.9c0.1,0,0.1,0,0.2,0c1.3,0.3,2.7,0.6,4,0.8c0,0,0,0,0,0c9.6,1.7,19.1,3,28.7,3.8c2.8,0.3,5.7,0.5,8.5,0.7
			c4.2,0.3,8.4,0.5,12.7,0.6h18c4.4-0.1,8.7-0.3,13.1-0.6c2.4-0.2,4.9-0.4,7.3-0.6c9.8-0.9,19.6-2.2,29.4-3.9c0,0,0,0,0,0
			c1.4-0.2,2.7-0.5,4-0.8c0.1,0,0.1,0,0.2,0c1.3-0.3,2.5-0.6,3.8-0.9c-1.2,0.3-2.4,0.6-3.7,0.9
			C321.3,1359.9,321.4,1360,321.4,1360.1z"/>
		<path fill="#F3BA64" d="M65.4,1320.6h-3.9v48.1c11.1,2.9,21.3,7.7,31.4,13.6v-61.7h-3.9H65.4L65.4,1320.6z"/>
		<path fill="#E4E98C" d="M457.5,1420.7c-12.2,0-22.7,1.1-32.6,3c-6.6,1.2-12.9,2.8-19.2,4.5c-30.7,8.4-60.1,20.9-120.4,20.9
			c-5.3,0-10.4-0.1-15.4-0.3c-8.4-0.3-16.3-0.9-23.9-1.7c-80.7-8.7-116.8-43.6-153.2-64.7c-10.1-5.9-20.3-10.7-31.4-13.6
			c-7.3-1.9-15-3-23.3-3c-12.8,0-25.8,2.1-38.2,5.9v94.6h567.1C548.4,1442.1,510.7,1420.7,457.5,1420.7z"/>
		<path fill="#E4E98C" d="M1307,1382.2c-36.4,21.1-72.5,56-153.2,64.7c-7.5,0.8-15.5,1.4-23.9,1.7c-5,0.2-10.1,0.3-15.4,0.3
			c-60.3,0-89.6-12.5-120.4-20.9c-6.2-1.7-12.5-3.2-19.2-4.5c-9.8-1.8-20.4-3-32.6-3c-53.2,0-90.9,21.5-109.6,45.5H1400v-94.6
			c-12.4-3.8-25.4-5.9-38.2-5.9c-8.4,0-16.1,1.1-23.3,3C1327.3,1371.5,1317.2,1376.4,1307,1382.2z"/>
		<path fill="#D3E497" d="M0,1517.9v186.8v26.1c0,81.7,0,28.7,0,141.2h155.6l444.8-405.9h-33.3H0V1517.9z"/>
		<path fill="#D3E497" d="M799.7,1466.1l444.8,405.9H1400c0-137.3,0-190.4,0-281v-73.1v-51.7H832.9H799.7z"/>
		<path fill="#D3E497" d="M600.3,1466.1L155.6,1872c156.8-114.1,341.9-145.6,536.3-145.6c193.5,0,396.1,34.1,552.5,145.6
			l-444.8-405.9H600.3z"/>
		<path opacity="0.33" fill="#99DBF8" d="M600.3,1466.1L155.6,1872c156.8-114.1,341.9-145.6,536.3-145.6
			c193.5,0,396.1,34.1,552.5,145.6l-444.8-405.9H600.3z"/>
		<path fill="#D3E497" d="M155.6,1872h1088.8c-156.4-111.6-359-145.6-552.5-145.6C497.5,1726.4,312.4,1757.9,155.6,1872z"/>
		<path opacity="0.33" fill="#99DBF8" d="M155.6,1872h1088.8c-156.4-111.6-359-145.6-552.5-145.6
			C497.5,1726.4,312.4,1757.9,155.6,1872z"/>
		<path opacity="0.33" fill="#99DBF8" d="M155.6,1872h1088.8c-156.4-111.6-359-145.6-552.5-145.6
			C497.5,1726.4,312.4,1757.9,155.6,1872z"/>
	</g>
</g>
<g id="girl_with_umbrella">
	<g>
		<g>
			<path fill="#2B2B2B" d="M689.1,720.6l0-360c-4.7-1-8.1-1.3-12.6-1.3c-39.1,0-83.5,39.2-83.5,104.2c0,18.6,4.6,52.3,4.6,52.7
				c0,0.2-19,47-19,88.3C578.6,668.7,615.3,718,689.1,720.6z"/>
		</g>
		<g>
			<path fill="#2B2B2B" d="M701.7,359.3c-4.6,0-7.9,0.2-12.6,1.3l0,360c73.8-2.5,110.5-51.8,110.5-116c0-41.3-19-88.1-19-88.3
				c0-0.5,4.6-34.2,4.6-52.7C785.2,398.5,740.8,359.3,701.7,359.3z"/>
		</g>
		<g>
			<g>
				<g>
					<path fill="#8F8AC2" d="M716.6,1775.7h68.7l8.7-278.7l10-208l-98.7,6.7c0,2-3.4,106-3.4,106L716.6,1775.7z"/>
				</g>
				<g>
					<path fill="#8681B6" d="M802.9,1310.2l1-21.2l-98.7,6.7c0,2-3.4,106-3.4,106l14.8,374h19.5c-18-129.9-26-255.9-17-384.8
						C721.9,1344.5,771.3,1334.8,802.9,1310.2z"/>
				</g>
				<g>
					<path fill="#EF4345" d="M701.8,1598.6c0,0,10.4,177.3,10,177.2c-0.5-0.1-19.5,30.3-11.8,50.7c0,0,42.7,9.5,63.1,5.4
						c20.4-4.1,25.9-17.3,25.9-17.3l-2.3-26.8l10-178L701.8,1598.6z"/>
				</g>
				<g>
					<path fill="#CA383A" d="M711.8,1775.7c0,0,15.5-4.6,33.2,7.1c0,0-6.8-14.9-33.6-16L711.8,1775.7z"/>
				</g>
			</g>
			<g>
				<g>
					<path fill="#8F8AC2" d="M584.2,1497l8.7,278.7h68.7l14.8-374c0,0-3.4-104-3.4-106l-98.7-6.7L584.2,1497z"/>
				</g>
				<g>
					<path fill="#8681B6" d="M661.5,1775.7l14.8-374c0,0-3.4-104-3.4-106l-98.7-6.7l1,21.2c31.6,24.6,81,34.3,83.8,80.7
						c9,129,1,254.9-17,384.8H661.5z"/>
				</g>
				<g>
					<path fill="#EF4345" d="M615,1831.9c20.4,4.1,63.1-5.4,63.1-5.4c7.7-20.4-11.3-50.8-11.8-50.7c-0.5,0.1,10-177.2,10-177.2
						l-94.9,11.3l10,178l-2.3,26.8C589.1,1814.7,594.6,1827.8,615,1831.9z"/>
				</g>
				<g>
					<path fill="#CA383A" d="M666.3,1775.7l0.4-8.9c-26.7,1-33.6,16-33.6,16C650.8,1771.1,666.3,1775.7,666.3,1775.7z"/>
				</g>
			</g>
		</g>
		<g>
			<path fill="#FFDE17" d="M522.9,1299c0,0,76.3,18.5,166.2,18.5c89.8,0,166.2-18.5,166.2-18.5s-2-75.9-9.5-161.9
				s-48.5-201-48.5-250c0-115.5,34-268.9,34-268.9c-37-22.4-107.9-40.5-107.9-40.5l-34.2,58.9l-34.2-58.9c0,0-70.9,18.1-107.9,40.5
				c0,0,34,153.4,34,268.9c0,49-41,164-48.5,250S522.9,1299,522.9,1299z"/>
		</g>
		<g>
			<rect x="685.1" y="688.8" fill="#EA8685" width="8" height="636.4"/>
		</g>
		<g>
			<path fill="#696699" d="M853.1,1290.3c-0.8,0.2-76.4,18.2-164,18.2c-87.6,0-163.3-18.1-164-18.2c-4.8-1.2-9.7,1.8-10.9,6.6
				c-1.2,4.8,1.8,9.7,6.6,10.9c3.2,0.8,78.4,18.8,168.3,18.8c89.9,0,165.1-18,168.3-18.8c4.8-1.2,7.8-6,6.6-10.9
				C862.8,1292.1,857.9,1289.1,853.1,1290.3z"/>
		</g>
		<g>
			<path fill="#8F8AC2" d="M654.8,577.7c0,0-15.1,3.8-34.9,10.2v0l6,60.6l28.4,65.1l34.7,39.6l34.7-39.6l28.4-65.1l6-60.6v0
				c-19.8-6.3-34.9-10.2-34.9-10.2l-34.2,58.9L654.8,577.7z"/>
		</g>
		<g>
			<path fill="#696699" d="M808.2,606.5c-21.4-19.3-50-18.6-50-18.6c-57.2,104.9-69.1,193.8-69.1,193.8l92.3-101.3l-9.2-23.3
				l43.2-10.7L808.2,606.5z"/>
		</g>
		<g>
			<path fill="#FFD791" d="M689.1,618.2c26,0,38.6-18.4,38.6-18.4c-15.3-69.4-6.3-93.4-6.3-93.4h-32.3h-32.3c0,0,9,23.9-6.3,93.4
				C650.5,599.8,663,618.2,689.1,618.2z"/>
		</g>
		<g>
			<path fill="#CEAF77" d="M723.8,580.7c-9.8-54.8-2.5-74.2-2.5-74.2h-32.3h-18.2c-4.3,3.8-8.3,8.3-11.8,13.2
				c0.6,7.1,0.7,17.4-0.6,31.5C675.5,568.9,699.3,578,723.8,580.7z"/>
		</g>
		<g>
			<path fill="#FFD791" d="M628.2,457c0,47.2,27.2,99.1,60.8,99.1c33.6,0,60.8-51.9,60.8-99.1s-27.2-71.8-60.8-71.8
				C655.5,385.2,628.2,409.8,628.2,457z"/>
		</g>
		<g>
			<g>
				
					<ellipse transform="matrix(0.745 -0.667 0.667 0.745 -117.0144 542.7275)" fill="#2B2B2B" cx="651.4" cy="424.4" rx="56" ry="39.2"/>
			</g>
			<g>
				
					<ellipse transform="matrix(0.667 -0.745 0.745 0.667 -74.2451 682.7319)" fill="#2B2B2B" cx="726.7" cy="424.4" rx="39.2" ry="56"/>
			</g>
		</g>
		<g>
			<path fill="#696699" d="M689.1,781.7c0,0-11.9-88.9-69.1-193.8c0,0-28.6-0.8-50,18.6l-7.2,39.8L606,657l-9.2,23.3L689.1,781.7z"
				/>
		</g>
		<g>
			<path fill="#FFDE17" d="M530.4,644.2c-3,14.5-31.7,183.5-23.7,214.5s38,46,50,34s69.2-63,69.2-63l-79-211.4
				C546.9,618.2,533.4,629.7,530.4,644.2z"/>
		</g>
		<g>
			<path fill="#EF4345" d="M628.2,583c0,0,13.4,67.6,60.8,67.6v-58.1c0,0-25-2.8-34.2-14.8C654.8,577.7,639.8,574.5,628.2,583z"/>
		</g>
		<g>
			<path fill="#EF4345" d="M689.1,592.5v58.1c47.4,0,60.8-67.6,60.8-67.6c-11.6-8.5-26.6-5.3-26.6-5.3
				C714.1,589.7,689.1,592.5,689.1,592.5z"/>
		</g>
		<g>
			<path fill="#FFDE17" d="M831.2,618.2c-11.2,14.6-47,88.4-47,88.4s38.2,169.6,38.2,172.6s32.8,181.9,32.8,181.9l42-10
				c0,0-26.9-170.1-28.9-186.1S831.2,618.2,831.2,618.2z"/>
		</g>
		<g>
			<path fill="#FFDE17" d="M831.2,618.2c-11.2,14.6-47,88.4-47,88.4s38.2,169.6,38.2,172.6s32.8,181.9,32.8,181.9l42-10
				c0,0-26.9-170.1-28.9-186.1S831.2,618.2,831.2,618.2z"/>
		</g>
		<g>
			<path fill="#E7B61F" d="M580.7,896.8c19.3-31.5,77.7-97.1,77.7-97.1l-77.7,70.7l0,0c0.1,5.7,0.2,11.3,0.2,16.8
				c0,3.1-0.2,6.4-0.5,10C580.5,897,580.6,896.9,580.7,896.8z"/>
		</g>
		<g>
			<g>
				
					<rect x="664.7" y="301.9" transform="matrix(0.9947 -0.103 0.103 0.9947 -56.1339 72.078)" fill="#FFFFFF" width="10.1" height="555.2"/>
			</g>
			<g>
				<path fill="#EF4345" d="M684.3,789.7l7.6,73.4c0.3,2.9,2.9,4.9,5.7,4.6l3.9-0.4c2.9-0.3,4.9-2.9,4.6-5.7l-7.8-75.5
					C693.7,787.4,689,788.5,684.3,789.7z"/>
			</g>
			<g>
				<g>
					<path fill="#CA383A" d="M620.1,88.9l-5,0.5c-2.4,0.2-4.2,2.3-4.1,4.7l0.7,26.9l18.3-1.9l-4.8-26.5
						C624.7,90.3,622.5,88.6,620.1,88.9z"/>
				</g>
				<g>
					<g>
						<g>
							<path fill="#CA383A" d="M475.2,313.7c0,0-50.7,19.8-42.6,31.9c8.2,12.2,34.6,28.4,34.6,28.4c31.9-31.8,135-36,135-36
								L590.6,311l-33.2-11.1L475.2,313.7z"/>
						</g>
						<g>
							<path fill="#CA383A" d="M232.4,379.6l17.6,16.9c0,0,60.5-30.5,135.9-30.5l-63.3-15.3l-47.4,2.5L232.4,379.6z"/>
						</g>
						<g>
							
								<ellipse transform="matrix(0.9947 -0.103 0.103 0.9947 -39.5159 27.8893)" fill="#CA383A" cx="250.2" cy="396.5" rx="9.3" ry="9.3"/>
						</g>
						<g>
							
								<ellipse transform="matrix(0.9947 -0.103 0.103 0.9947 -36.0866 49.8748)" fill="#CA383A" cx="464.8" cy="374.3" rx="9.3" ry="9.3"/>
						</g>
					</g>
					<g>
						<g>
							<path fill="#CA383A" d="M719.8,283l-30.3,17.7l-5.8,28.9c0,0,101.7-17,139.5,7.5c0,0,22.5-21.3,28-34.8
								c5.5-13.6-48.2-22.5-48.2-22.5L719.8,283z"/>
						</g>
						<g>
							<path fill="#CA383A" d="M901.1,312.7c73.8-15.5,139.3,2,139.3,2l13.8-20.1l-47.3-17.1l-46.9,7.3L901.1,312.7z"/>
						</g>
						<g>
							
								<ellipse transform="matrix(0.9947 -0.103 0.103 0.9947 -26.8839 108.8316)" fill="#CA383A" cx="1040.1" cy="314.7" rx="9.3" ry="9.3"/>
						</g>
						<g>
							
								<ellipse transform="matrix(0.9947 -0.103 0.103 0.9947 -30.3158 86.8524)" fill="#CA383A" cx="825.6" cy="336.9" rx="9.3" ry="9.3"/>
						</g>
					</g>
				</g>
				<g>
					<g>
						<path fill="#EF4345" d="M722.8,121.6c-27.4-10-62.4-13.8-103.2-13c-40.1,7.6-73.6,18.5-98.3,33.9
							c-267.4,58.4-328,268.4-328,268.4c97.1-72.8,207.1-21.4,207.1-21.4c93.8-80.3,243.9-42.4,243.9-42.4s139.2-67.8,247.4-8.5
							c0,0,97.1-72.8,207.1-21.4C1098.8,317.1,996.5,124,722.8,121.6z"/>
					</g>
					<g>
						<path fill="#CA383A" d="M387.3,384.3c8.3,2.8,13.1,5.1,13.1,5.1c5.1-4.4,10.5-8.4,15.9-12.2l0,0
							c11.7-66.5,47.5-145.2,105-234.8C403.9,280.6,387.3,384.3,387.3,384.3z"/>
					</g>
					<g>
						<path fill="#CA383A" d="M891.7,338.5c0,0,4.2-3.1,11.8-7.6c0,0-37.5-98.1-180.7-209.3c74.7,75.9,125.8,145.5,150.9,208.3l0,0
							C879.8,332.4,885.8,335.3,891.7,338.5z"/>
					</g>
					<g>
						<polygon fill="#CA383A" points="644.3,347 666.1,337.9 619.6,108.6 621.1,342.6 						"/>
					</g>
				</g>
				<g>
					
						<ellipse transform="matrix(0.9947 -0.103 0.103 0.9947 -41.2993 22.1019)" fill="#EF4345" cx="193.3" cy="410.9" rx="13.2" ry="13.2"/>
				</g>
				<g>
					
						<ellipse transform="matrix(0.9947 -0.103 0.103 0.9947 -37.9782 43.3943)" fill="#CA383A" cx="401.1" cy="389.3" rx="13.2" ry="13.2"/>
				</g>
				<g>
					
						<ellipse transform="matrix(0.9947 -0.103 0.103 0.9947 -32.3173 68.2249)" fill="#CA383A" cx="644.3" cy="347" rx="13.2" ry="13.2"/>
				</g>
				<g>
					
						<ellipse transform="matrix(0.9947 -0.103 0.103 0.9947 -30.1409 93.6011)" fill="#CA383A" cx="891" cy="338.6" rx="13.2" ry="13.2"/>
				</g>
				<g>
					
						<ellipse transform="matrix(0.9947 -0.103 0.103 0.9947 -26.8192 114.8967)" fill="#EF4345" cx="1098.8" cy="317.1" rx="13.2" ry="13.2"/>
				</g>
			</g>
		</g>
		<g>
			<path fill="#FFD791" d="M648.4,753.2l-0.3,1.2c6.8,10.1,12.8,22.2,13.8,34.3c5.8,1.8,11.9,4.3,18,5.6c16,3.4,27.7-3.5,31.4-20.4
				c2.5-11.6-1.4-35.4-21.2-39.6C674.8,730.9,658.1,741.3,648.4,753.2z"/>
		</g>
		<g>
			<path fill="#E7B61F" d="M653.1,831l18.6-12c0.7-0.4,1.1-1.1,1.1-1.9c0.1-1.1,0.1-2.3,0.1-3.4c0-8-1.4-15.9-4-23.5
				c-7,6.3-22.1,20-22.1,20c1.6,6.1,2.5,12.4,2.5,18.7c0,0,0,0,0,0C649.3,830.9,651.4,832.1,653.1,831z"/>
		</g>
		<g>
			<g>
				<path fill="#696699" d="M655.9,825.7l18.6-12c0.7-0.4,1.1-1.1,1.1-1.9c0.1-1.1,0.1-2.3,0.1-3.4c0-21.5-10.3-42.8-26-57.1
					c-0.8-0.7-2-0.8-3-0.2l-19.3,12.4c-1.3,0.9-1.5,2.7-0.4,3.8c15.2,14.3,25.1,35.2,25.1,56.3c0,0,0,0,0,0
					C652.1,825.6,654.2,826.8,655.9,825.7z"/>
			</g>
		</g>
		<g>
			<path fill="#FFD791" d="M876.3,1090.9c13.2,0,11,36.2,13.6,45.3c0.9,3.1,9.7,6.7,11.8-30c0.7-11.7-2.8-36.7-6.6-47.6
				c-5.8,0.7-13,3.5-18.9,3.5c-6.2,0-11.1-2.9-17.3-4c-0.1,2.8-0.3,18.8-0.3,22c0,14.2,2.3,30,15,30.4c0,0,0,0,0.1,0
				c1.4,0,1.8-1.1,1.8-2.9c0-3.3-1.6-8.7-1.6-12.6C873.9,1093,874.8,1090.9,876.3,1090.9z"/>
		</g>
		<g>
			<path fill="#E7B61F" d="M627,767.3l-46.6,29.3c0,0-5.1-102.4-5.5-103.5c-0.4-1.1,0.3,114.7,0,115.5S627,767.3,627,767.3z"/>
		</g>
		<g>
			<path fill="#E7B61F" d="M795.4,727.7c0,0-2.1,161.4,2.4,170.7c-0.4-4-0.6-7.8-0.6-11.2c0-37.3,3.5-78.5,8.3-117.3L795.4,727.7z"
				/>
		</g>
		<g>
			<path fill="#E7B61F" d="M794.6,753c11.3,50.5,27.8,124.3,27.8,126.2c0,2.5,22.2,124.1,30.1,167.1h9.6
				c-0.6-3.8-49.3-246.7-49.3-246.7l-17.3-72C795.4,727.7,795.1,737.9,794.6,753z"/>
		</g>
		<g>
			<g>
				<path fill="#696699" d="M903.1,1034.2c-18.7,9.3-41.7,11.4-61.4,4.2c0,0,0,0,0,0c-1.8-0.7-3.7,0.9-3.3,2.8l4.9,21.5
					c0.2,0.8,0.7,1.4,1.4,1.7c1.1,0.4,2.1,0.9,3.2,1.3c20.2,7.4,43.7,5.1,62.6-4.8c1-0.5,1.5-1.6,1.2-2.7l-5-22.4
					C906.2,1034.3,904.5,1033.5,903.1,1034.2z"/>
			</g>
		</g>
		<g>
			<path fill="#696699" d="M804.4,918C728.1,931,650,931,573.7,918c-1.9-0.3-3.6,0.9-3.9,2.8c-0.8,4.4-1.5,8.7-2.3,13.1
				c-0.3,1.8,1,3.6,2.9,3.9c78.6,13.3,158.9,13.3,237.5,0c1.9-0.3,3.2-2.1,2.9-3.9c-0.8-4.4-1.5-8.7-2.3-13.1
				C808.1,919,806.3,917.7,804.4,918z"/>
		</g>
		<g>
			<path fill="#57547E" d="M670.6,918c-4.3,0-7.8,3.5-7.8,7.8v24.1c0,4.3,3.5,7.8,7.8,7.8h36.9c4.3,0,7.8-3.5,7.8-7.8v-24.1
				c0-4.3-3.5-7.8-7.8-7.8H670.6z M707.3,949.7h-36.5V926h36.5V949.7z"/>
		</g>
		<g>
			<g>
				<path fill="#696699" d="M547.1,1175.6l4,8.1c20.1-10,45.3-24.9,62.4-51.1l-7.5-4.9C597.7,1140.5,583.4,1157.5,547.1,1175.6z"/>
			</g>
			<g>
				<path fill="#696699" d="M764.6,1132.6c17.1,26.1,42.3,41,62.4,51.1l4-8.1c-19.1-9.5-43-23.6-58.9-48L764.6,1132.6z"/>
			</g>
		</g>
		<g>
			<path fill="#FFFFFF" d="M688.1,536.7c6,0,11.3-3.2,14.3-7.9h-28.6C676.8,533.6,682.1,536.7,688.1,536.7z"/>
		</g>
		<g>
			<path fill="#EF4345" d="M688.1,536.7c3.2,0,6.1-0.9,8.6-2.4c-2.5-1.5-5.5-2.4-8.6-2.4c-3.2,0-6.1,0.9-8.6,2.4
				C682,535.9,685,536.7,688.1,536.7z"/>
		</g>
	</g>
	<g>
		<path fill="#B1E2F6" d="M0,1486.6l2.8,13.5c0.1,0.4,0.3,0.8,0.7,1c0.2,0.1,0.5,0.2,0.8,0.2c0.2,0,0.3,0,0.4-0.1l0.2-0.1
			c0.7-0.2,1.2-1,1-1.7L0,1471.2V1486.6z"/>
		<path fill="#B1E2F6" d="M52,1721.8c-0.6-0.1-1.2,0.2-1.5,0.7l-0.1,0.2c-0.2,0.3-0.3,0.7-0.2,1.1c7.3,34.5,14.6,69,21.9,103.4
			l9.5,44.7h3.2l-31.5-149C53.1,1722.4,52.6,1721.9,52,1721.8z"/>
		<path fill="#B1E2F6" d="M17.9,1078.2c-0.7,0-1.3,0.6-1.4,1.3l-0.1,0.7c0,0.2,0,0.3,0,0.5l14.1,66.7c0.1,0.4,0.4,0.8,0.8,1
			c0.2,0.1,0.4,0.2,0.7,0.2c0.2,0,0.4,0,0.6-0.1l0.3-0.1c0.6-0.3,1-1,0.9-1.7l-14.3-67.3C19.3,1078.6,18.7,1078.1,17.9,1078.2z"/>
		<path fill="#B1E2F6" d="M0,1002.9l5.7,27.1c0,0.2,0.1,0.3,0.2,0.5l0.3,0.5c0.3,0.5,0.8,0.7,1.3,0.7c0.2,0,0.4,0,0.5-0.1
			c0.7-0.3,1.1-1,0.9-1.7l-9-42.3V1002.9z"/>
		<path fill="#B1E2F6" d="M161.8,1755.1l-0.5-0.2c-0.5-0.2-1.1-0.1-1.5,0.3c-0.4,0.4-0.6,0.9-0.5,1.4l8.8,41.8
			c0.1,0.5,0.4,0.9,0.9,1.1c0.2,0.1,0.4,0.1,0.6,0.1c0.3,0,0.6-0.1,0.8-0.3l0.4-0.3c0.5-0.3,0.8-1,0.7-1.6l-8.7-41.3
			C162.7,1755.7,162.3,1755.3,161.8,1755.1z"/>
		<path fill="#B1E2F6" d="M40,1178.7c-0.4-0.2-0.9-0.2-1.3,0l-0.3,0.1c-0.6,0.3-1,1-0.9,1.7l1.2,5.7c0.1,0.5,0.4,0.9,0.8,1
			c0.2,0.1,0.4,0.1,0.6,0.1c0.2,0,0.5-0.1,0.7-0.2l0.3-0.1c0.6-0.3,0.9-1,0.8-1.6l-1.2-5.6C40.6,1179.3,40.4,1178.9,40,1178.7z"/>
		<path fill="#B1E2F6" d="M76.4,1361.6c-0.3,0.4-0.5,0.8-0.4,1.3l11.9,56.2c0.1,0.7,0.8,1.2,1.5,1.2c0,0,0,0,0.1,0
			c0.7,0,1.3-0.6,1.4-1.3l0-0.2c0-0.1,0.1-0.2,0.1-0.4l0.1-0.3c0.1-0.2,0.1-0.4,0-0.7l-11.7-55.2c-0.1-0.6-0.6-1.1-1.3-1.2l-0.4,0
			l-0.2,1.5l0.2-1.5C77.2,1361,76.8,1361.2,76.4,1361.6z"/>
		<path fill="#B1E2F6" d="M108.6,1500.3l-1-2.4c-0.3-0.7-1.1-1.1-1.8-0.9c-0.7,0.2-1.2,1-1,1.7l5,23.7c0.1,0.7,0.8,1.2,1.5,1.2
			c0,0,0,0,0,0l0.2,0c0.1,0,0.1,0,0.2,0c0.5,0,0.9-0.2,1.2-0.5c0.3-0.4,0.4-0.8,0.3-1.3l-4.5-21.2
			C108.7,1500.5,108.7,1500.4,108.6,1500.3z"/>
		<path fill="#B1E2F6" d="M39,696.5c-0.1,0-0.2,0-0.3,0c-0.1,0-0.2,0-0.3,0c-0.4,0-0.8,0.2-1.1,0.6c-0.3,0.3-0.4,0.8-0.3,1.2
			c3.6,16.8,7.1,33.5,10.7,50.1c0.1,0.4,0.4,0.8,0.8,1c0.2,0.1,0.5,0.2,0.7,0.2c0.2,0,0.4,0,0.5-0.1c0.1,0,0.2-0.1,0.3-0.1l0.2-0.1
			c0.7-0.3,1.1-1,0.9-1.7l-10.6-50C40.5,696.9,39.8,696.4,39,696.5z"/>
		<path fill="#B1E2F6" d="M66.4,825.5l-0.2,0l-0.3,0c-0.5,0-0.9,0.2-1.2,0.5c-0.3,0.4-0.4,0.8-0.3,1.3c2.8,13.3,5.6,26.5,8.4,39.7
			c0.1,0.3,0.2,0.6,0.4,0.8c0.2,0.2,0.4,0.4,0.6,0.6c0.3,0.3,0.7,0.5,1.1,0.5c0.2,0,0.5-0.1,0.7-0.2c0.6-0.3,0.9-1,0.8-1.6
			l-8.5-40.3C67.7,826,67.1,825.5,66.4,825.5z"/>
		<path fill="#B1E2F6" d="M78.5,882.2c-0.7-0.1-1.3,0.3-1.5,0.9l-0.1,0.2c-0.1,0.2-0.1,0.3-0.2,0.5c-0.1,0.3-0.2,0.6-0.1,1
			c7.2,34,14.3,67.7,21.4,101.3l7.6,35.8c0.1,0.5,0.4,0.9,0.9,1.1c0.2,0.1,0.4,0.1,0.6,0.1c0.3,0,0.6-0.1,0.8-0.2
			c0.1-0.1,0.3-0.2,0.4-0.2c0.6-0.3,0.8-1,0.7-1.6L79.9,883.4C79.7,882.7,79.2,882.3,78.5,882.2z"/>
		<path fill="#B1E2F6" d="M133.1,1137.7c-0.4-0.2-0.9-0.2-1.3,0l-0.4,0.2c-0.7,0.3-1,1-0.9,1.7l2.4,11.5c0.1,0.6,0.5,1,1.1,1.1
			c0.1,0,0.2,0,0.4,0c0.4,0,0.9-0.2,1.2-0.5l0.4-0.4c0.3-0.4,0.4-0.8,0.3-1.3l-2.4-11.3C133.7,1138.3,133.5,1137.9,133.1,1137.7z"/>
		<path fill="#B1E2F6" d="M219.8,1546.4c-0.4-0.2-0.9-0.2-1.4,0l-0.4,0.2c-0.6,0.3-0.9,1-0.8,1.6l3.2,15.2c0.1,0.5,0.5,0.9,1,1.1
			l0.3,0.1c0.2,0.1,0.3,0.1,0.5,0.1c0.4,0,0.7-0.1,1-0.4c0.4-0.4,0.6-0.9,0.5-1.4c-1-5.1-2.1-10.3-3.1-15.5
			C220.5,1546.9,220.2,1546.6,219.8,1546.4z"/>
		<path fill="#B1E2F6" d="M265.1,1766.4l-0.8,0.1c-0.4,0-0.8,0.3-1.1,0.6c-0.2,0.3-0.3,0.8-0.3,1.2c1.6,7.8,3.3,16.1,5.5,26.3
			c0.1,0.4,0.4,0.8,0.7,1c0.3,0.2,0.7,0.4,1,0.6c0.2,0.1,0.5,0.2,0.8,0.2c0.3,0,0.6-0.1,0.9-0.3c0.5-0.3,0.7-0.9,0.6-1.5l-5.7-26.9
			C266.6,1766.8,265.9,1766.3,265.1,1766.4z"/>
		<path fill="#B1E2F6" d="M168.3,821.2l-0.2-0.1c-0.5-0.3-1.2-0.3-1.7,0c-0.5,0.3-0.7,1-0.6,1.5c6.7,31.9,13.4,63.7,20.2,95.5
			c0.1,0.4,0.4,0.8,0.8,1c0.2,0.1,0.5,0.2,0.7,0.2c0.2,0,0.4,0,0.6-0.1l0.2-0.1c0.7-0.3,1.1-1,0.9-1.7L169,822.1
			C168.9,821.7,168.7,821.4,168.3,821.2z"/>
		<path fill="#B1E2F6" d="M302.8,1462.5l-0.2,0c-0.4,0.1-0.8,0.3-1,0.6c-0.2,0.3-0.3,0.8-0.2,1.2l2.6,12.4c0.1,0.7,0.8,1.2,1.5,1.2
			c0.1,0,0.2,0,0.2,0l0.2,0c0.4-0.1,0.8-0.3,1-0.6c0.2-0.3,0.3-0.8,0.2-1.2l-2.6-12.4C304.4,1462.9,303.6,1462.4,302.8,1462.5z"/>
		<path fill="#B1E2F6" d="M340.2,1316.2c-0.4-0.2-0.8-0.3-1.2-0.1l-0.3,0.1c-0.7,0.2-1.1,1-1,1.7c7.4,35,14.8,70.2,22.2,105.5
			c0.1,0.7,0.8,1.2,1.5,1.2c0.1,0,0.2,0,0.2,0l0.4,0c0.4-0.1,0.8-0.3,1-0.6s0.3-0.8,0.2-1.2l-22.3-105.6
			C340.8,1316.8,340.6,1316.4,340.2,1316.2z"/>
		<path fill="#B1E2F6" d="M453.6,1444.3c-0.4-0.2-0.8-0.3-1.2-0.1l-0.3,0.1c-0.7,0.2-1.1,1-1,1.7c7.4,35,14.8,70.2,22.2,105.5
			c0.1,0.7,0.8,1.2,1.5,1.2c0.1,0,0.2,0,0.2,0l0.4,0c0.4-0.1,0.8-0.3,1-0.6c0.2-0.3,0.3-0.8,0.2-1.2l-22.3-105.6
			C454.2,1444.9,453.9,1444.5,453.6,1444.3z"/>
		<path fill="#B1E2F6" d="M376.1,1486.2c-0.4-0.2-0.8-0.3-1.2-0.1l-0.4,0.1c-0.7,0.2-1.2,1-1,1.7l1.4,6.5c0.1,0.4,0.3,0.7,0.6,0.9
			c0.1,0.1,0.2,0.1,0.3,0.2l0.3,0.2c0.3,0.2,0.6,0.3,0.9,0.3c0.3,0,0.6-0.1,0.8-0.2c0.5-0.3,0.8-1,0.7-1.6l-1.5-7
			C376.8,1486.8,376.5,1486.4,376.1,1486.2z"/>
		<path fill="#B1E2F6" d="M266.3,1286.1c-0.5-0.2-1-0.1-1.4,0.2l-0.2,0.2c-0.5,0.4-0.7,0.9-0.6,1.5c7.4,35.2,14.9,70.5,22.4,105.9
			c0.1,0.4,0.4,0.7,0.7,1c0.2,0.1,0.5,0.2,0.8,0.2c0.1,0,0.3,0,0.4-0.1l0.1,0c0.8-0.2,1.3-1,1.1-1.8l-22.4-106
			C267.2,1286.7,266.8,1286.3,266.3,1286.1z"/>
		<path fill="#B1E2F6" d="M34.9,187.5c-0.2-0.8-1-1.3-1.8-1.1c-0.8,0.2-1.3,1-1.2,1.8l14.7,69.5c0.1,0.5,0.5,0.9,0.9,1.1
			c0.2,0.1,0.4,0.1,0.5,0.1c0.3,0,0.6-0.1,0.9-0.3l0.4-0.3c0.5-0.3,0.7-0.9,0.6-1.5l-3.9-17.9C42.3,221.6,38.6,204.5,34.9,187.5z"/>
		<path fill="#B1E2F6" d="M0,39.1c8.9,43,17.5,83.1,24.6,115.6c0.2,0.7,0.8,1.2,1.5,1.2c0.1,0,0.2,0,0.3,0l0.2,0
			c0.4-0.1,0.7-0.3,1-0.6c0.2-0.3,0.3-0.8,0.2-1.1L0,22.6V39.1z"/>
		<path fill="#B1E2F6" d="M163,325.6l38,179.6c0,0,0,0,0,0.1l10.8,51.1c0.1,0.4,0.4,0.8,0.8,1c0.2,0.1,0.4,0.2,0.7,0.2
			c0.2,0,0.4,0,0.6-0.1c0,0,0.1,0,0.1-0.1c0.6-0.3,0.9-1,0.7-1.6l-10.8-51.1l0-0.1c-12.6-59.9-25.3-119.7-38-179.6l0-0.1
			c-0.2-0.8-1-1.3-1.8-1.2c-0.8,0.2-1.3,1-1.2,1.8v0C163,325.5,163,325.5,163,325.6z"/>
		<path fill="#B1E2F6" d="M72.4,460l38,179.6c0.1,0.7,0.8,1.2,1.5,1.2c0.1,0,0.2,0,0.3,0c0.8-0.2,1.3-1,1.2-1.8
			c-12.7-59.9-25.3-119.8-38-179.8l0,0c-0.2-0.8-1-1.3-1.8-1.2c-0.8,0.2-1.3,1-1.2,1.8v0C72.3,459.9,72.3,459.9,72.4,460z"/>
		<path fill="#B1E2F6" d="M370.2,1294.3c-0.4-0.2-0.9-0.2-1.3,0l-0.3,0.1c-0.6,0.3-1,1-0.8,1.7l16.8,79.5c0.1,0.7,0.8,1.2,1.5,1.2
			c0,0,0.1,0,0.1,0l0.3,0c0.4,0,0.8-0.2,1.1-0.6c0.3-0.3,0.4-0.8,0.3-1.2l-16.8-79.6C370.9,1294.8,370.6,1294.5,370.2,1294.3z"/>
		<path fill="#B1E2F6" d="M321.1,1062c-0.4-0.2-0.9-0.2-1.3-0.1c-0.5,0.2-0.9,0.6-1,1.1l0,0.1c0,0.2,0,0.4,0,0.6l18.1,85.7
			c0.1,0.7,0.7,1.2,1.5,1.2l0.2,0c0,0,0,0,0,0c0.4,0,0.9-0.2,1.2-0.5c0.3-0.4,0.4-0.8,0.3-1.3l-18.1-85.9
			C321.8,1062.5,321.5,1062.2,321.1,1062z"/>
		<path fill="#B1E2F6" d="M94.1,0c2.1,10.1,4.2,20.2,6.3,30.3c3.6,17.3,7.2,34.6,10.8,51.9c0.1,0.7,0.7,1.2,1.4,1.2
			c0.1,0,0.1,0,0.2,0l0.2,0c0,0,0.1,0,0.1,0c0.4,0,0.8-0.2,1.1-0.5c0.3-0.4,0.4-0.8,0.3-1.3L97.3,0H94.1z"/>
		<path fill="#B1E2F6" d="M131,164.3c-0.1,0-0.2,0-0.3-0.1l-0.2,0c-0.5-0.1-1,0.1-1.3,0.5c-0.3,0.4-0.5,0.9-0.4,1.3l1.1,5.3
			c0.1,0.6,0.6,1.1,1.2,1.2c0.1,0,0.2,0,0.2,0c0.5,0,1-0.3,1.3-0.7c0.1-0.2,0.2-0.3,0.3-0.5l0.1-0.2c0.2-0.3,0.3-0.7,0.2-1.1l-1-4.5
			C132.1,164.9,131.6,164.4,131,164.3z"/>
		<path fill="#B1E2F6" d="M375.4,837.1c-0.6-0.1-1.2,0.1-1.5,0.6l-0.1,0.1c-0.3,0.3-0.4,0.8-0.3,1.2
			c10.7,50.8,21.5,101.7,32.3,152.5l2.1,10.1c0.1,0.4,0.4,0.7,0.7,1c0.2,0.1,0.5,0.2,0.8,0.2c0.1,0,0.3,0,0.4-0.1c0,0,0.1,0,0.1,0
			c0.8-0.2,1.2-1,1-1.8l-34.4-162.7C376.4,837.7,375.9,837.3,375.4,837.1z"/>
		<path fill="#B1E2F6" d="M416.9,1032.1c-0.4-0.2-0.8-0.3-1.2-0.2c-0.8,0.2-1.2,1-1.1,1.8l29,136.8c0.1,0.7,0.8,1.2,1.5,1.2
			c0.1,0,0.1,0,0.2,0c0,0,0.1,0,0.1,0c0.4-0.1,0.8-0.3,1-0.6s0.3-0.8,0.2-1.2L417.7,1033C417.6,1032.6,417.3,1032.3,416.9,1032.1z"
			/>
		<path fill="#B1E2F6" d="M467.9,1277.9c-0.8,0.2-1.3,1-1.2,1.8l29.8,140.9c0.1,0.5,0.5,0.9,1,1.1c0,0,0.1,0,0.1,0
			c0.2,0.1,0.3,0.1,0.5,0.1c0.4,0,0.7-0.1,1-0.4c0.4-0.4,0.6-0.9,0.5-1.4L469.6,1279C469.5,1278.2,468.7,1277.7,467.9,1277.9z"/>
		<path fill="#B1E2F6" d="M566.6,1740.7c-0.5-0.2-1.1,0-1.5,0.3l-0.1,0.1c-0.4,0.4-0.6,0.9-0.5,1.4l11.1,52.4
			c0.1,0.6,0.7,1.1,1.3,1.2c0,0,0.1,0,0.1,0c0.1,0,0.1,0,0.2,0c0.4,0,0.8-0.2,1.1-0.5c0.3-0.4,0.5-0.8,0.4-1.3l-11.1-52.5
			C567.5,1741.3,567.1,1740.9,566.6,1740.7z"/>
		<path fill="#B1E2F6" d="M537.2,1601.7c-0.5-0.2-1-0.1-1.4,0.2c0,0-0.1,0.1-0.1,0.1c-0.4,0.4-0.7,0.9-0.5,1.5l2.8,13.5
			c0.1,0.5,0.5,0.9,0.9,1.1l0.1,0c0.2,0.1,0.4,0.1,0.6,0.1c0.3,0,0.7-0.1,1-0.3c0.4-0.4,0.6-0.9,0.5-1.5l-2.9-13.6
			C538.1,1602.3,537.7,1601.9,537.2,1601.7z"/>
		<path fill="#B1E2F6" d="M271,353.5c4.1,19.5,8.2,39,12.3,58.5l4.5,21.5c0.1,0.4,0.4,0.8,0.7,1c0.2,0.1,0.5,0.2,0.8,0.2
			c0.2,0,0.3,0,0.5-0.1c0,0,0,0,0,0c0.7-0.2,1.2-1,1-1.7l-16.9-79.9c0,0,0,0,0,0v0c-0.2-0.8-1-1.3-1.8-1.2
			C271.3,351.9,270.8,352.7,271,353.5C271,353.5,271,353.5,271,353.5L271,353.5z"/>
		<path fill="#B1E2F6" d="M333.1,647.7l7.3,34.8c5.4,25.5,10.8,51.1,16.2,76.6c0,0.1,0.1,0.3,0.1,0.3c0.1,0.2,0.1,0.3,0.2,0.5
			c0.2,0.6,0.8,1,1.4,1c0.1,0,0.3,0,0.4-0.1c0.8-0.2,1.2-1,1.1-1.8l-23.7-112c-0.1-0.4-0.3-0.7-0.7-1s-0.8-0.3-1.2-0.2l0.3,1.5
			l-0.3-1.5C333.4,646.1,332.9,646.9,333.1,647.7z"/>
		<path fill="#B1E2F6" d="M191.5,645.7l7.4,35.1c5.4,25.4,10.7,50.8,16.1,76.3c0,0.1,0.1,0.3,0.1,0.3c0.1,0.2,0.1,0.3,0.2,0.5
			c0.2,0.6,0.8,1,1.4,1c0.1,0,0.3,0,0.4-0.1c0.8-0.2,1.2-1,1.1-1.8l-23.7-112c-0.1-0.4-0.3-0.7-0.7-0.9c-0.3-0.2-0.8-0.3-1.2-0.2
			l0.3,1.5l-0.3-1.5C191.8,644.1,191.3,644.9,191.5,645.7z"/>
		<path fill="#B1E2F6" d="M227.9,143.5c0.3,0,0.7-0.1,0.9-0.3c0.4-0.4,0.7-0.9,0.5-1.5c-7.3-34.4-14.5-68.7-21.8-103.1
			c-2.7-12.8-5.4-25.7-8.2-38.6h-3.1l30.1,142.2c0.1,0.5,0.5,0.9,0.9,1.1l0.7-1.3l-0.6,1.4C227.4,143.4,227.7,143.5,227.9,143.5z"/>
		<path fill="#B1E2F6" d="M357.3,264.7c-0.2-0.8-1-1.3-1.8-1.2c-0.8,0.2-1.3,1-1.2,1.8l16.9,79.9c0.1,0.5,0.5,0.9,1,1.1
			c0.2,0.1,0.3,0.1,0.5,0.1c0.3,0,0.7-0.1,1-0.3c0,0,0,0,0,0c0.4-0.4,0.6-0.9,0.5-1.5L357.3,264.7L357.3,264.7z"/>
		<path fill="#B1E2F6" d="M407.1,509.4c-0.6,0.3-0.9,1-0.8,1.6l0.8,3.9c0.1,0.5,0.5,1,1.1,1.1c0.1,0,0.3,0.1,0.4,0.1
			c0.4,0,0.8-0.2,1.1-0.5c0,0,0.1-0.1,0.1-0.1c0.3-0.4,0.4-0.8,0.3-1.3l-0.8-3.8c-0.1-0.3-0.2-0.5-0.4-0.8l-1.1,1l1.1-1
			C408.4,509.2,407.7,509.1,407.1,509.4z"/>
		<path fill="#B1E2F6" d="M523.6,1055.1l-0.2,0c-0.5-0.2-1.1,0-1.4,0.3c-0.4,0.4-0.6,0.9-0.4,1.4l12.1,57.2c0.1,0.4,0.4,0.8,0.8,1
			c0.2,0.1,0.5,0.2,0.7,0.2c0.2,0,0.4,0,0.6-0.1c0,0,0.1,0,0.1,0c0.6-0.3,1-1,0.8-1.7l-12.1-57.1
			C524.5,1055.7,524.1,1055.3,523.6,1055.1z"/>
		<path fill="#B1E2F6" d="M577.2,1310.3l-0.3,0c-0.5,0-0.9,0.2-1.2,0.5c-0.3,0.4-0.4,0.8-0.3,1.3l0.7,3.4c0.1,0.7,0.8,1.2,1.5,1.2
			c0.1,0,0.2,0,0.3,0l0.2,0c0.4-0.1,0.8-0.3,1-0.6c0.2-0.3,0.3-0.8,0.2-1.2l-0.7-3.3C578.4,1310.8,577.8,1310.3,577.2,1310.3z"/>
		<path fill="#B1E2F6" d="M658.6,1693.4c-0.5-0.2-1-0.1-1.4,0.2l-0.4,0.3c-0.5,0.3-0.8,1-0.6,1.6c10.7,50.9,21.5,102,32.3,153.3
			c0.1,0.5,0.4,0.9,0.9,1.1c0.2,0.1,0.4,0.1,0.6,0.1c0.3,0,0.6-0.1,0.8-0.2l0.4-0.3c0.5-0.3,0.8-1,0.7-1.6l-32.4-153.2
			C659.4,1694,659.1,1693.6,658.6,1693.4z"/>
		<path fill="#B1E2F6" d="M481.6,855.5c-0.5-0.2-1.1-0.2-1.6,0.2c-0.4,0.4-0.7,0.9-0.5,1.5l14.2,67.3c0.1,0.5,0.5,0.9,1,1.1
			c0.2,0.1,0.3,0.1,0.5,0.1c0.4,0,0.7-0.1,1-0.4c0.4-0.4,0.6-0.9,0.5-1.5l-14.2-67.3C482.3,856.1,482,855.7,481.6,855.5z"/>
		<path fill="#B1E2F6" d="M201.9,1758.9l-0.2,0c-0.4,0.1-0.8,0.3-1,0.6c-0.2,0.3-0.3,0.8-0.2,1.2l2.6,12.4c0.1,0.7,0.8,1.2,1.5,1.2
			c0.1,0,0.2,0,0.2,0l0.2,0c0.4-0.1,0.8-0.3,1-0.6c0.2-0.3,0.3-0.8,0.2-1.2l-2.6-12.4C203.5,1759.3,202.7,1758.8,201.9,1758.9z"/>
		<path fill="#B1E2F6" d="M239.3,1612.6c-0.4-0.2-0.8-0.3-1.2-0.1l-0.3,0.1c-0.7,0.2-1.1,1-1,1.7c7.4,35,14.8,70.2,22.2,105.5
			c0.1,0.7,0.8,1.2,1.5,1.2c0.1,0,0.2,0,0.2,0l0.4,0c0.4-0.1,0.8-0.3,1-0.6c0.2-0.3,0.3-0.8,0.2-1.2L240,1613.6
			C239.9,1613.2,239.7,1612.8,239.3,1612.6z"/>
		<path fill="#B1E2F6" d="M352.6,1740.7c-0.4-0.2-0.8-0.3-1.2-0.1l-0.3,0.1c-0.7,0.2-1.1,1-1,1.7c7.4,35,14.8,70.2,22.2,105.5
			c0.1,0.7,0.8,1.2,1.5,1.2c0.1,0,0.2,0,0.2,0l0.4,0c0.4-0.1,0.8-0.3,1-0.6c0.2-0.3,0.3-0.8,0.2-1.2l-22.3-105.6
			C353.3,1741.3,353,1740.9,352.6,1740.7z"/>
		<path fill="#B1E2F6" d="M275.2,1782.6c-0.4-0.2-0.8-0.3-1.2-0.1l-0.4,0.1c-0.7,0.2-1.2,1-1,1.7l1.4,6.5c0.1,0.4,0.3,0.7,0.6,0.9
			c0.1,0.1,0.2,0.1,0.3,0.2l0.3,0.2c0.3,0.2,0.6,0.3,0.9,0.3c0.3,0,0.6-0.1,0.8-0.2c0.5-0.3,0.8-1,0.7-1.6l-1.5-7
			C275.8,1783.2,275.6,1782.8,275.2,1782.6z"/>
		<path fill="#B1E2F6" d="M165.4,1582.5c-0.5-0.2-1-0.1-1.4,0.2l-0.2,0.1c-0.5,0.3-0.7,0.9-0.6,1.5c7.4,35.2,14.9,70.5,22.4,105.9
			c0.1,0.4,0.4,0.7,0.7,1c0.2,0.1,0.5,0.2,0.8,0.2c0.1,0,0.3,0,0.4-0.1l0.1,0c0.8-0.2,1.3-1,1.1-1.8l-22.4-106
			C166.2,1583.1,165.9,1582.7,165.4,1582.5z"/>
		<path fill="#B1E2F6" d="M269.3,1590.7c-0.4-0.2-0.9-0.2-1.3,0l-0.3,0.1c-0.6,0.3-1,1-0.8,1.7l16.8,79.5c0.1,0.7,0.8,1.2,1.5,1.2
			c0,0,0.1,0,0.1,0l0.3,0c0.4,0,0.8-0.2,1.1-0.6c0.3-0.3,0.4-0.8,0.3-1.2l-16.8-79.6C270,1591.2,269.7,1590.9,269.3,1590.7z"/>
		<path fill="#B1E2F6" d="M220.3,1358.3c-0.4-0.2-0.8-0.2-1.2-0.1l-0.2,0.1c-0.5,0.2-0.9,0.6-1,1.1l0,0.1c0,0.2,0,0.4,0,0.6
			l18.1,85.7c0.1,0.7,0.7,1.2,1.5,1.2l0.3,0c0,0,0,0,0,0c0.4,0,0.9-0.2,1.2-0.5c0.3-0.4,0.4-0.8,0.3-1.3l-18.1-85.9
			C220.9,1358.9,220.6,1358.6,220.3,1358.3z"/>
		<path fill="#B1E2F6" d="M274.4,1133.5c-0.6-0.1-1.2,0.1-1.5,0.6l-0.1,0.1c-0.3,0.3-0.4,0.8-0.3,1.2
			c10.3,48.7,20.6,97.5,30.9,146.2l3.5,16.4c0.1,0.4,0.4,0.7,0.7,1c0.2,0.1,0.5,0.2,0.8,0.2c0.1,0,0.3,0,0.4-0.1c0,0,0.1,0,0.1,0
			c0.8-0.2,1.2-1,1.1-1.8l-34.4-162.7C275.5,1134.1,275,1133.7,274.4,1133.5z"/>
		<path fill="#B1E2F6" d="M316,1328.5c-0.4-0.2-0.8-0.3-1.2-0.1c-0.7,0.2-1.2,1-1,1.7l29,136.8c0.1,0.7,0.8,1.2,1.5,1.2
			c0.1,0,0.1,0,0.2,0c0,0,0.1,0,0.1,0c0.4-0.1,0.8-0.3,1-0.6c0.2-0.3,0.3-0.8,0.2-1.2l-28.9-136.8
			C316.7,1329,316.4,1328.7,316,1328.5z"/>
		<path fill="#B1E2F6" d="M397.1,1718.1c0.4,0,0.7-0.1,1-0.4c0.4-0.4,0.6-0.9,0.5-1.4l-29.8-140.9c-0.2-0.8-1-1.3-1.8-1.2
			c-0.8,0.2-1.3,1-1.2,1.8l29.8,140.9c0.1,0.5,0.5,0.9,1,1.1l0.5-1.4l-0.5,1.4C396.8,1718.1,396.9,1718.1,397.1,1718.1z"/>
		<path fill="#B1E2F6" d="M380.7,1151.9c-0.5-0.3-1.1-0.2-1.6,0.2c-0.5,0.4-0.7,0.9-0.6,1.5l14.2,67.3c0.1,0.5,0.5,0.9,1,1.1
			c0.2,0.1,0.3,0.1,0.5,0.1c0.4,0,0.7-0.1,1-0.4c0.4-0.4,0.6-0.9,0.5-1.5l-14.2-67.3C381.4,1152.5,381.1,1152.1,380.7,1151.9z"/>
		<path fill="#B1E2F6" d="M420.5,566.7c-0.5-0.2-1.1-0.1-1.5,0.2s-0.6,0.9-0.5,1.5l27.7,131c0.1,0.5,0.5,0.9,1,1.1
			c0.2,0.1,0.3,0.1,0.5,0.1c0.3,0,0.7-0.1,0.9-0.3c0,0,0,0,0,0c0.4-0.4,0.6-0.9,0.5-1.5c-9.2-43.6-18.4-87.2-27.6-130.9
			C421.3,567.3,421,566.9,420.5,566.7z"/>
		<path fill="#B1E2F6" d="M310.4,51.2c0.2,0,0.3,0,0.5-0.1c0.7-0.2,1.1-1,1-1.7C308.6,34,305.1,17.3,301.4,0h-3.1l10.5,49.9
			c0,0.1,0.1,0.2,0.1,0.4c0,0,0,0.1,0.1,0.1l1.4-0.6l-1.3,0.7C309.3,50.9,309.8,51.2,310.4,51.2z"/>
		<path fill="#B1E2F6" d="M324.4,114c-0.6-0.1-1.3,0.3-1.5,0.9c-0.1,0.3-0.2,0.6-0.1,0.9c6.7,31.9,14.5,68.9,22.3,105.2
			c0.2,0.7,0.8,1.2,1.5,1.2c0.1,0,0.2,0,0.3,0c0.8-0.2,1.3-1,1.2-1.8l-22.2-105.3C325.6,114.6,325.1,114.1,324.4,114z"/>
		<path fill="#B1E2F6" d="M630.9,1083.7c-0.8,0.2-1.3,1-1.2,1.8c8.8,43.8,18.5,89.8,30.6,144.7c0.2,0.7,0.8,1.2,1.5,1.2
			c0.1,0,0.2,0,0.3,0c0.8-0.2,1.3-1,1.2-1.8l-30.6-144.7C632.5,1084,631.8,1083.5,630.9,1083.7z"/>
		<path fill="#B1E2F6" d="M526.7,581.9c-0.1-0.5-0.5-0.9-0.9-1.1s-1-0.1-1.4,0.1l-0.2,0.1c-0.5,0.3-0.8,1-0.7,1.6l12,56.6
			c0.1,0.6,0.7,1.1,1.3,1.2c0,0,0.1,0,0.1,0c0.6,0,1.2-0.4,1.4-1l0.2-0.5c0.1-0.3,0.1-0.6,0.1-0.9l-4.3-20.1
			C531.8,606,529.2,594,526.7,581.9z"/>
		<path fill="#B1E2F6" d="M578.2,830.1c-0.6-0.1-1.2,0.1-1.5,0.6l-0.2,0.3c-0.3,0.3-0.3,0.8-0.3,1.2l3.8,18.1
			c0.1,0.7,0.8,1.2,1.5,1.2c0,0,0.1,0,0.1,0c0.8-0.1,1.3-0.7,1.4-1.4c0-0.3,0-0.5,0.1-0.8c0-0.2,0-0.3,0-0.5l-3.7-17.5
			C579.3,830.7,578.8,830.2,578.2,830.1z"/>
		<path fill="#B1E2F6" d="M585.1,858.5c0-0.1-0.1-0.3-0.2-0.4c-0.1-0.2-0.3-0.5-0.4-0.8c-0.3-0.7-1.1-1-1.8-0.8
			c-0.7,0.2-1.1,1-1,1.7l14.8,69.9c0.1,0.3,0.2,0.6,0.5,0.8l0.2,0.1c0.3,0.3,0.6,0.4,1,0.4c0.3,0,0.5-0.1,0.7-0.2
			c0.6-0.3,0.9-1,0.7-1.6l-1.1-5.5C594,900.9,589.6,879.6,585.1,858.5z"/>
		<path fill="#B1E2F6" d="M464.5,292c-0.4-0.2-0.9-0.2-1.3,0c-0.6,0.3-1,1-0.8,1.7l11.9,56c0.1,0.3,0.2,0.6,0.5,0.8
			c0.3,0.3,0.7,0.4,1,0.4c0.2,0,0.5-0.1,0.7-0.2c0.6-0.3,0.9-1,0.8-1.6L465.4,293C465.3,292.6,464.9,292.2,464.5,292z"/>
		<path fill="#B1E2F6" d="M404.5,8.2C404.5,8.2,404.4,8.2,404.5,8.2c-0.6-0.2-1.2-0.2-1.6,0.2c-0.4,0.4-0.6,0.9-0.5,1.5l2.7,13.1
			c0.1,0.4,0.3,0.8,0.7,1c0.2,0.1,0.5,0.2,0.8,0.2c0.1,0,0.3,0,0.4-0.1l0.1,0c0.8-0.2,1.2-1,1.1-1.8l-2.7-13
			C405.3,8.8,404.9,8.4,404.5,8.2z"/>
		<path fill="#B1E2F6" d="M802.9,1413.4l-0.1,0c-0.4,0-0.8,0.3-1.1,0.6c-0.3,0.3-0.4,0.8-0.3,1.2l14.3,68.2c0.1,0.4,0.3,0.7,0.7,1
			c0.2,0.2,0.5,0.2,0.8,0.2c0.1,0,0.2,0,0.4,0l0.2-0.1c0.8-0.2,1.3-1,1.1-1.8l-14.4-68.1C804.3,1413.9,803.6,1413.4,802.9,1413.4z"
			/>
		<path fill="#B1E2F6" d="M885.4,1800.2c-0.4-0.2-0.9-0.2-1.3,0l-0.5,0.3c-0.6,0.3-1,1-0.8,1.7c1.2,5.6,2.4,11.2,3.6,16.9l2.8,13.2
			c0.1,0.5,0.4,0.9,0.9,1.1c0.2,0.1,0.4,0.1,0.6,0.1c0.3,0,0.5-0.1,0.7-0.2l0.5-0.3c0.6-0.3,0.9-1,0.7-1.6l-6.3-30
			C886.1,1800.8,885.8,1800.4,885.4,1800.2z"/>
		<path fill="#B1E2F6" d="M831.7,1547.8l-0.3-0.1c-0.5-0.1-1,0-1.4,0.4s-0.5,0.9-0.4,1.4l16.3,77.5c0.1,0.6,0.6,1.1,1.3,1.2l0.4,0.1
			c0.1,0,0.2,0,0.2,0c0.4,0,0.8-0.2,1.1-0.5c0.3-0.4,0.5-0.9,0.4-1.3l-16.4-77.5C832.7,1548.4,832.3,1547.9,831.7,1547.8z"/>
		<path fill="#B1E2F6" d="M731.2,1075.1C731.2,1075.1,731.2,1075.1,731.2,1075.1c-0.4,0.1-0.8,0.3-1,0.7c-0.2,0.3-0.3,0.7-0.2,1.1
			l7.7,36.7c0.1,0.4,0.4,0.8,0.8,1c0.2,0.1,0.5,0.2,0.8,0.2c0.2,0,0.3,0,0.5-0.1c0.7-0.2,1.2-1,1-1.7l-7.8-36.6
			C732.9,1075.4,732,1074.9,731.2,1075.1z"/>
		<path fill="#B1E2F6" d="M784,1317.9c-3.4-16.4-6.9-32.7-10.3-49.1l-1.6-7.5c-0.2-0.8-0.9-1.3-1.7-1.2c0,0,0,0,0,0
			c-0.4,0-0.8,0.3-1,0.6c-0.2,0.3-0.3,0.8-0.2,1.2l12,56.6c0,0,0,0,0,0l1.7,8.3c0.1,0.4,0.3,0.7,0.7,1c0.2,0.2,0.5,0.2,0.8,0.2
			c0.1,0,0.2,0,0.4,0c0,0,0.1,0,0.1,0c0.7-0.2,1.2-1,1-1.7L784,1317.9L784,1317.9z"/>
		<path fill="#B1E2F6" d="M600.7,450.6l-5.4-25.6c-0.1-0.5-0.5-0.9-1-1.1l-0.6-0.2c-0.5-0.2-1.1-0.1-1.5,0.3
			c-0.4,0.4-0.6,0.9-0.5,1.4l2.5,11.9c1.2,5,2.4,9.6,3.6,14l18.2,86c0.1,0.7,0.7,1.2,1.4,1.2l0.3,0c0,0,0,0,0,0
			c0.4,0,0.9-0.2,1.2-0.5c0.3-0.4,0.4-0.8,0.3-1.3c-5.4-25.8-10.3-49.3-14.9-72.1C603.1,459.6,601.9,455,600.7,450.6z"/>
		<path fill="#B1E2F6" d="M671.1,782.2c-0.4-0.2-0.9-0.2-1.3,0l-0.8,0.4c-0.6,0.3-1,1-0.8,1.7L690.5,890c0.1,0.4,0.3,0.7,0.7,1
			c0.2,0.2,0.5,0.2,0.8,0.2c0.1,0,0.2,0,0.4,0l0.5-0.1c0.8-0.2,1.3-1,1.1-1.8c-6.5-32.1-13.5-65.8-22-106.1
			C671.8,782.8,671.5,782.4,671.1,782.2z"/>
		<path fill="#B1E2F6" d="M519.2,68.1C519.2,68.1,519.2,68,519.2,68.1c-0.6-0.2-1.2-0.1-1.6,0.2c-0.4,0.4-0.6,0.9-0.5,1.5
			c5.5,26.2,11,52.3,16.6,78.5c0.1,0.7,0.8,1.2,1.5,1.2c0.1,0,0.2,0,0.2,0c0,0,0.1,0,0.1,0c0.4-0.1,0.7-0.3,1-0.6
			c0.2-0.3,0.3-0.7,0.2-1.1l-16.6-78.4C520,68.7,519.6,68.3,519.2,68.1z"/>
		<path fill="#B1E2F6" d="M551.8,221.4c-0.4-0.2-0.8-0.3-1.2-0.1c-0.8,0.2-1.2,1-1.1,1.8l2.2,10.7c0.1,0.7,0.8,1.2,1.5,1.2
			c0.1,0,0.2,0,0.2,0c0,0,0.1,0,0.1,0c0.4-0.1,0.8-0.3,1-0.6c0.2-0.3,0.3-0.8,0.2-1.2l-2.3-10.7C552.4,222,552.1,221.6,551.8,221.4z
			"/>
		<path fill="#B1E2F6" d="M808.5,965.5c4,19.1,8,38.2,12,57.3l3.8,18.1c0.1,0.7,0.8,1.2,1.5,1.2c0,0,0.1,0,0.1,0
			c0.4,0,0.9-0.2,1.2-0.5c0.3-0.4,0.4-0.8,0.3-1.3l-15.9-75.4c0,0,0,0,0,0v0c-0.2-0.8-1-1.3-1.8-1.2
			C808.9,963.9,808.4,964.7,808.5,965.5C808.5,965.5,808.5,965.5,808.5,965.5L808.5,965.5z"/>
		<path fill="#B1E2F6" d="M871.5,1251.6c-0.4-0.2-0.9-0.2-1.3,0l-0.2,0.1c0,0-0.1,0-0.1,0c-0.6,0.3-0.9,1-0.8,1.6
			c14.5,68.9,29.1,137.7,43.7,206.6c0.1,0.4,0.3,0.7,0.7,1c0.2,0.2,0.5,0.2,0.8,0.2c0.1,0,0.2,0,0.3,0l0.3-0.1
			c0.8-0.2,1.3-1,1.1-1.8l-43.7-206.6C872.2,1252.2,871.9,1251.8,871.5,1251.6z"/>
		<path fill="#B1E2F6" d="M922,1490c-0.3-0.2-0.8-0.3-1.2-0.2l-0.2,0.1c-0.8,0.2-1.3,1-1.1,1.8c7.5,35.2,14.9,70.4,22.4,105.6
			l4.9,23.2c0.1,0.7,0.8,1.2,1.5,1.2c0,0,0,0,0.1,0l0.1,0c0.4,0,0.9-0.2,1.1-0.6c0.3-0.4,0.4-0.8,0.3-1.2L922.7,1491
			C922.6,1490.6,922.3,1490.3,922,1490z"/>
		<path fill="#B1E2F6" d="M793.9,888.6l-0.3,0c-0.4,0.1-0.8,0.3-1,0.6c-0.2,0.3-0.3,0.8-0.2,1.2c1.8,8.2,3.6,16.4,5.5,24.6
			c0.2,0.7,0.8,1.2,1.5,1.2c0.1,0,0.2,0,0.3,0c0.8-0.2,1.3-1,1.1-1.8l-5.2-24.6C795.4,889,794.7,888.5,793.9,888.6z"/>
		<path fill="#B1E2F6" d="M652.4,213c-0.1-0.1-0.2-0.3-0.3-0.4l-0.2-0.2c-0.4-0.5-1.2-0.7-1.8-0.4c-0.6,0.3-0.9,1-0.8,1.7l3.6,17.1
			c0.1,0.7,0.7,1.1,1.4,1.2l0.4,0c0,0,0.1,0,0.1,0c0.4,0,0.8-0.2,1.1-0.5c0.3-0.4,0.4-0.8,0.3-1.3l-3.5-16.5
			C652.7,213.5,652.5,213.2,652.4,213z"/>
		<path fill="#B1E2F6" d="M1001.5,1386.4l-0.3,0c-0.5,0-0.9,0.1-1.3,0.5c-0.3,0.4-0.4,0.8-0.3,1.3l9.9,46.7c0.1,0.7,0.8,1.2,1.5,1.2
			c0,0,0,0,0.1,0c0.7,0,1.3-0.6,1.4-1.3l0.1-0.9c0-0.2,0-0.3,0-0.5l-9.7-45.7C1002.7,1386.9,1002.2,1386.5,1001.5,1386.4z"/>
		<path fill="#B1E2F6" d="M988.8,1552l-0.1,0c-0.4,0-0.8,0.3-1.1,0.6c-0.3,0.3-0.4,0.8-0.3,1.2l5.6,26.8c2.9,13.8,5.8,27.6,8.7,41.4
			c0.1,0.4,0.3,0.7,0.7,1c0.2,0.2,0.5,0.2,0.8,0.2c0.1,0,0.2,0,0.3,0l0.2-0.1c0.8-0.2,1.3-1,1.1-1.8l-14.4-68.1
			C990.2,1552.5,989.5,1552,988.8,1552z"/>
		<path fill="#B1E2F6" d="M1017.6,1686.4l-0.3-0.1c-0.5-0.1-1,0-1.4,0.4s-0.5,0.9-0.4,1.4l16.3,77.5c0.1,0.6,0.6,1.1,1.2,1.2
			l0.4,0.1c0.1,0,0.2,0,0.2,0c0.4,0,0.8-0.2,1.1-0.5c0.3-0.4,0.5-0.9,0.4-1.3l-16.4-77.5C1018.6,1686.9,1018.2,1686.5,1017.6,1686.4
			z"/>
		<path fill="#B1E2F6" d="M1004.6,1140.5c0.3-0.4,0.4-0.8,0.3-1.3l-7.6-35.8c0,0,0,0,0,0v0c-0.2-0.8-1-1.3-1.8-1.2
			c-0.8,0.2-1.3,1-1.2,1.8c1.4,6.7,2.8,13.4,4.2,20.1l3.3,15.7c0.1,0.7,0.8,1.2,1.5,1.2c0,0,0,0,0,0l0-1.5v1.5
			C1003.9,1141.1,1004.3,1140.9,1004.6,1140.5z"/>
		<path fill="#B1E2F6" d="M1085.3,1521.9c-0.4-0.2-0.8-0.3-1.2-0.2l-0.1,0c-0.8,0.2-1.3,1-1.1,1.8l5.3,25
			c3.5,16.7,7.1,33.4,10.6,50.1c0.1,0.4,0.3,0.7,0.7,1c0.2,0.2,0.5,0.2,0.8,0.2c0.1,0,0.2,0,0.3,0l0.3-0.1c0.8-0.2,1.3-1,1.1-1.8
			l-15.9-75.1C1085.9,1522.4,1085.6,1522.1,1085.3,1521.9z"/>
		<path fill="#B1E2F6" d="M1107.9,1628.6c-0.3-0.2-0.8-0.3-1.2-0.2l-0.2,0.1c-0.8,0.2-1.3,1-1.1,1.8c7.3,34.5,14.6,69.1,22,103.6
			l5.3,25.2c0.1,0.7,0.8,1.2,1.5,1.2c0,0,0,0,0,0c0,0,0.1,0,0.1,0c0.4,0,0.9-0.2,1.1-0.6c0.3-0.3,0.4-0.8,0.3-1.2l-27.2-128.8
			C1108.5,1629.2,1108.2,1628.9,1107.9,1628.6z"/>
		<path fill="#B1E2F6" d="M1187.4,1525l-0.3,0c-0.5,0-0.9,0.1-1.3,0.5c-0.3,0.4-0.4,0.8-0.3,1.3l9.9,46.7c0.1,0.7,0.8,1.2,1.5,1.2
			c0,0,0,0,0.1,0c0.7,0,1.3-0.6,1.4-1.3c0-0.3,0.1-0.6,0.1-0.9c0-0.2,0-0.3,0-0.5l-9.7-45.7
			C1188.6,1525.5,1188.1,1525.1,1187.4,1525z"/>
		<path fill="#B1E2F6" d="M1035.6,1543.6l-0.3-0.4c-0.5-0.5-1.2-0.6-1.8-0.3c-0.6,0.3-0.9,1-0.8,1.6l11.1,52.6
			c0.1,0.4,0.4,0.8,0.8,1c0.2,0.1,0.5,0.2,0.7,0.2c0.2,0,0.4,0,0.6-0.1l0.1,0c0.7-0.3,1-1,0.9-1.7l-11-52.2
			C1035.9,1544,1035.8,1543.8,1035.6,1543.6z"/>
		<path fill="#B1E2F6" d="M1092.8,1819.7l-0.1,0c-0.4,0.1-0.8,0.3-1,0.6c-0.2,0.3-0.3,0.8-0.2,1.2c3.6,16.8,7.1,33.7,10.7,50.5h3.2
			l-10.8-51.1C1094.3,1820.1,1093.5,1819.6,1092.8,1819.7z"/>
		<path fill="#B1E2F6" d="M908,945.8c-0.8,0.2-1.3,1-1.2,1.8c9.5,45.3,19,90.6,28.5,135.9c0.1,0.6,0.6,1.1,1.3,1.2
			c0.1,0,0.1,0,0.2,0c0.6,0,1.1-0.3,1.3-0.8l0.1-0.3c0.2-0.3,0.2-0.7,0.1-1l-28.7-135.6v0C909.6,946.1,908.8,945.6,908,945.8z"/>
		<path fill="#B1E2F6" d="M958.8,1181.1l-0.3-0.2c-0.5-0.4-1.2-0.4-1.7-0.1c-0.5,0.3-0.8,1-0.7,1.6l1.6,7.7c0.1,0.5,0.5,0.9,0.9,1.1
			c0.2,0.1,0.4,0.1,0.5,0.1c0.3,0,0.6-0.1,0.9-0.3l0.2-0.2c0.5-0.3,0.7-1,0.6-1.5l-1.5-7.3C959.3,1181.7,959.1,1181.3,958.8,1181.1z
			"/>
		<path fill="#B1E2F6" d="M756.2,223.7c-0.5-0.2-1-0.1-1.4,0.2l-0.5,0.3c-0.5,0.4-0.7,0.9-0.6,1.5l3,14.5c0.1,0.4,0.4,0.8,0.8,1
			c0.2,0.1,0.5,0.2,0.7,0.2c0.2,0,0.4,0,0.5-0.1l0.5-0.2c0.7-0.3,1.1-1,0.9-1.7l-3.1-14.7C757,224.3,756.6,223.9,756.2,223.7z"/>
		<path fill="#B1E2F6" d="M881.2,813.1l-0.5-0.2c-0.5-0.2-1.1-0.2-1.6,0.2c-0.4,0.4-0.7,0.9-0.5,1.5l17.4,82.5
			c0.1,0.7,0.8,1.2,1.5,1.2c0.1,0,0.2,0,0.3,0c0.8-0.2,1.3-1,1.2-1.8c-5.7-28.6-11.5-56.5-17-82.3
			C882,813.7,881.7,813.3,881.2,813.1z"/>
		<path fill="#B1E2F6" d="M1093.9,1337.3C1093.9,1337.3,1093.8,1337.3,1093.9,1337.3c-0.6-0.4-1.3-0.4-1.8-0.1
			c-0.5,0.3-0.8,1-0.6,1.6l2.6,12.5c0.1,0.7,0.8,1.2,1.5,1.2c0.1,0,0.1,0,0.2,0l0.1,0c0.4-0.1,0.8-0.3,1-0.6
			c0.2-0.3,0.3-0.8,0.2-1.2l-2.6-12.5C1094.4,1337.9,1094.2,1337.5,1093.9,1337.3z"/>
		<path fill="#B1E2F6" d="M1178.6,1741.9C1178.6,1741.9,1178.6,1741.9,1178.6,1741.9c-0.7,0-1.3,0.5-1.5,1.2l-0.1,0.4
			c0,0.2,0,0.4,0,0.6l4.4,20.9c0.1,0.6,0.8,1.1,1.4,1.2c0.1,0,0.1,0,0.2,0c0.4,0,0.8-0.2,1.1-0.5c0.3-0.4,0.5-0.9,0.4-1.3l-4.5-21.3
			C1179.9,1742.4,1179.3,1741.9,1178.6,1741.9z"/>
		<path fill="#B1E2F6" d="M1142.4,1567.9c-0.4-0.2-0.9-0.2-1.3-0.1c-0.7,0.3-1.1,1-0.9,1.7l11,51.9c0.1,0.3,0.2,0.5,0.4,0.7l0.2,0.2
			c0.3,0.3,0.7,0.5,1.1,0.5c0.2,0,0.5-0.1,0.7-0.2c0.6-0.3,0.9-1,0.8-1.6l-11-52.1C1143.1,1568.4,1142.8,1568.1,1142.4,1567.9z"/>
		<path fill="#B1E2F6" d="M942.4,621.7c-0.4-0.2-0.9-0.2-1.3-0.1c-0.7,0.3-1.1,1-0.9,1.7l2.7,12.9c0.1,0.6,0.6,1,1.2,1.2l0.1,0
			c0.1,0,0.3,0.1,0.4,0.1c0.4,0,0.7-0.1,1-0.4c0.4-0.4,0.6-0.9,0.4-1.4l-2.8-13C943.2,622.3,942.8,621.9,942.4,621.7z"/>
		<path fill="#B1E2F6" d="M980.2,800.8c-0.5-0.2-1-0.1-1.4,0.2c0,0-0.1,0.1-0.1,0.1c-0.4,0.4-0.6,0.9-0.5,1.5l3.4,15.8
			c4.4,20.9,8.9,41.9,13.3,62.8l0,0c0.1,0.7,0.8,1.2,1.5,1.2c0.1,0,0.2,0,0.3,0c0.8-0.2,1.3-1,1.2-1.8l-16.6-78.7
			C981,801.4,980.7,801,980.2,800.8z"/>
		<path fill="#B1E2F6" d="M826.7,77.2c-0.5,0-0.9,0.2-1.2,0.6c-0.3,0.4-0.4,0.8-0.3,1.3l23.3,110.4c0.1,0.6,0.7,1.1,1.3,1.2
			c0,0,0.1,0,0.1,0c0.6,0,1.2-0.4,1.4-0.9l0.1-0.1c0.1-0.3,0.2-0.6,0.1-0.9L828.2,78.4C828.1,77.7,827.4,77.2,826.7,77.2z"/>
		<path fill="#B1E2F6" d="M716.6,32.2c-0.5,0-0.9,0.2-1.2,0.6c-0.3,0.4-0.4,0.8-0.3,1.3l23.3,110.4c0.1,0.6,0.7,1.1,1.3,1.2
			c0,0,0.1,0,0.1,0c0.6,0,1.2-0.4,1.4-0.9l0.1-0.1c0.1-0.3,0.2-0.6,0.1-0.9L718.1,33.4C718,32.7,717.3,32.2,716.6,32.2z"/>
		<path fill="#B1E2F6" d="M620.6,48.6c-0.5-0.2-1-0.1-1.4,0.1c-0.5,0.3-0.8,1-0.7,1.6l19.8,94c0.1,0.6,0.7,1.1,1.3,1.2
			c0,0,0.1,0,0.1,0c0.6,0,1.2-0.4,1.4-0.9l0.1-0.1c0.1-0.3,0.1-0.6,0.1-0.9l-19.8-93.9C621.4,49.2,621.1,48.8,620.6,48.6z"/>
		<path fill="#B1E2F6" d="M854.2,202.6c0,0-0.1-0.1-0.1-0.1c-0.5-0.5-1.2-0.6-1.8-0.3c-0.6,0.3-0.9,1-0.8,1.6l7.2,33.9
			c0.1,0.6,0.7,1.1,1.3,1.2c0,0,0.1,0,0.1,0c0.1,0,0.1,0,0.2,0c0.4,0,0.8-0.2,1.1-0.5c0.3-0.4,0.5-0.9,0.4-1.3l-7.1-33.8
			C854.6,203.1,854.4,202.8,854.2,202.6z"/>
		<path fill="#B1E2F6" d="M896.6,412c-0.6,0.3-0.9,1-0.7,1.6l5.2,24.5c0.1,0.7,0.7,1.2,1.4,1.2c0,0,0,0,0,0c0.7,0,1.3-0.5,1.4-1.1
			l0.1-0.3c0.1-0.3,0.1-0.5,0.1-0.8l-5.1-24.2c-0.1-0.5-0.5-0.8-0.9-1C897.6,411.7,897,411.7,896.6,412l0.7,1.3l0,0L896.6,412z"/>
		<path fill="#B1E2F6" d="M921.4,519.5l-0.3-0.7c-0.3-0.7-1.1-1-1.8-0.8c-0.7,0.2-1.2,1-1,1.7l5.6,26.7c3.2,15.4,6.5,30.7,9.7,46.1
			c0.1,0.7,0.8,1.2,1.5,1.2c0,0,0.1,0,0.1,0c0,0,0,0,0.1,0c0.4,0,0.9-0.2,1.1-0.6c0.3-0.4,0.4-0.8,0.3-1.2l-15.2-72.1
			C921.5,519.8,921.5,519.6,921.4,519.5z"/>
		<path fill="#B1E2F6" d="M1237,1529.7l-44.5-210.6c-0.2-0.8-0.9-1.3-1.7-1.2l-0.3,0c-0.4,0-0.8,0.3-1,0.6c-0.2,0.3-0.3,0.8-0.2,1.2
			c14.3,67.1,28.9,135.9,44.8,210.5l15.4,72.9c0.1,0.4,0.4,0.7,0.7,1c0.2,0.1,0.5,0.2,0.8,0.2c0.1,0,0.3,0,0.4,0c0,0,0,0,0,0
			c0.8-0.2,1.3-1,1.1-1.8L1237,1529.7C1237,1529.7,1237,1529.7,1237,1529.7z"/>
		<path fill="#B1E2F6" d="M1289.3,1775.3c-0.1-0.4-0.4-0.8-0.8-1c-0.4-0.2-0.9-0.2-1.3,0l-0.3,0.2c-0.6,0.3-1,1-0.9,1.7l8.6,40.5
			c0.1,0.4,0.4,0.8,0.8,1c0.2,0.1,0.4,0.2,0.7,0.2c0.2,0,0.4,0,0.6-0.1l0.4-0.2c0.6-0.3,1-1,0.9-1.7l-3-14.2
			C1293,1792.8,1291.1,1784,1289.3,1775.3z"/>
		<path fill="#B1E2F6" d="M1144.9,1099.7c-0.7,0-1.3,0.5-1.5,1.1l-0.1,0.3c0,0.2-0.1,0.4-0.1,0.5c-0.1,0.2-0.1,0.5,0,0.7l3.9,18.4
			c2.9,13.8,5.8,27.6,8.7,41.4c0.1,0.7,0.7,1.2,1.4,1.2c0,0,0,0,0.1,0c0.7,0,1.2-0.4,1.4-1.1c0.1-0.2,0.2-0.5,0.2-0.7
			c0.1-0.3,0.1-0.6,0.1-0.8l-12.7-59.9C1146.2,1100.3,1145.6,1099.8,1144.9,1099.7z"/>
		<path fill="#B1E2F6" d="M1170.1,1215.4c-0.2-0.8-1-1.3-1.8-1.1c-0.8,0.2-1.3,1-1.1,1.8c3.5,16.3,6.9,32.6,10.4,48.9l5,23.7
			c0.1,0.7,0.8,1.2,1.5,1.2c0.1,0,0.1,0,0.2,0l0.4,0c0.4-0.1,0.8-0.3,1-0.6c0.2-0.3,0.3-0.8,0.2-1.2l-13.5-63.9
			C1171.6,1221.2,1170.9,1218.3,1170.1,1215.4z"/>
		<path fill="#B1E2F6" d="M937.2,116.7l-0.5,0c-0.5,0-0.9,0.2-1.2,0.5c-0.3,0.4-0.4,0.8-0.3,1.3c3.2,15,6.4,30,9.6,45
			c0.1,0.7,0.8,1.2,1.5,1.2c0.1,0,0.2,0,0.3,0l0.4-0.1c0.4-0.1,0.7-0.3,1-0.6c0.2-0.3,0.3-0.7,0.2-1.1l-9.5-44.9
			C938.5,117.2,937.9,116.7,937.2,116.7z"/>
		<path fill="#B1E2F6" d="M1085.4,819.2l-0.1,0c-0.4,0.1-0.8,0.3-1,0.6s-0.3,0.8-0.2,1.2c3.1,14.7,6.3,29.3,9.4,44
			c0.2,0.7,0.8,1.2,1.5,1.2c0.1,0,0.2,0,0.3,0c0.8-0.2,1.3-1,1.2-1.8l-9.3-44C1086.9,819.6,1086.2,819.1,1085.4,819.2z"/>
		<path fill="#B1E2F6" d="M953,193l-0.4,0.1c-0.4,0.1-0.7,0.3-1,0.6s-0.3,0.7-0.2,1.1l5.6,26.6c0.1,0.4,0.4,0.8,0.7,1
			c0.2,0.1,0.5,0.2,0.7,0.2c0.2,0,0.3,0,0.5-0.1l0.4-0.1c0.7-0.2,1.1-1,1-1.7l-5.6-26.6C954.6,193.4,953.8,192.9,953,193z"/>
		<path fill="#B1E2F6" d="M1390,1777.7c-0.4,0.1-0.7,0.3-1,0.6c-0.3,0.3-0.3,0.8-0.3,1.2l7.1,34.2c0.1,0.5,0.5,0.9,0.9,1.1
			c0.2,0.1,0.4,0.1,0.6,0.1c0.3,0,0.6-0.1,0.9-0.2c0,0,0.1,0,0.1-0.1c0.5-0.3,0.8-1,0.7-1.6l-7.2-34.1
			C1391.5,1778.1,1390.8,1777.6,1390,1777.7z"/>
		<path fill="#B1E2F6" d="M1269.8,1205.3l-0.3-0.1c-0.1,0-0.1,0-0.2-0.1c-0.5-0.2-1.1-0.1-1.5,0.3c-0.4,0.4-0.6,0.9-0.5,1.5
			c11.7,55.1,23.5,110,33.4,156.5c0.1,0.4,0.4,0.8,0.8,1c0.2,0.1,0.5,0.2,0.7,0.2c0.2,0,0.4,0,0.6-0.1c0,0,0.1-0.1,0.1-0.1
			c0.6-0.3,1-1,0.8-1.7l-33-156.3C1270.6,1205.9,1270.3,1205.5,1269.8,1205.3z"/>
		<path fill="#B1E2F6" d="M1333.6,1508.3l-0.3,0c-0.5,0-0.9,0.2-1.2,0.6c-0.3,0.4-0.4,0.8-0.3,1.3l8.3,39.2c0.1,0.7,0.8,1.2,1.5,1.2
			c0.1,0,0.2,0,0.3,0l0.4-0.1c0.4-0.1,0.8-0.3,1-0.6s0.3-0.8,0.2-1.2l-8.4-39.2C1335,1508.8,1334.3,1508.3,1333.6,1508.3z"/>
		<path fill="#B1E2F6" d="M1215.2,947c-0.5-0.2-1-0.1-1.4,0.2l-0.2,0.1c-0.5,0.3-0.7,0.9-0.6,1.5c5.4,25.9,10.8,51.8,16,76.9
			c0.1,0.4,0.4,0.8,0.7,1c0.2,0.1,0.5,0.2,0.7,0.2c0.2,0,0.4,0,0.5-0.1l0.4-0.1c0.7-0.3,1.1-1,1-1.7l-16.2-76.8
			C1216,947.6,1215.7,947.2,1215.2,947z"/>
		<path fill="#B1E2F6" d="M1034.6,95.7l-0.1,0c-0.4,0.1-0.7,0.3-1,0.6c-0.2,0.3-0.3,0.7-0.2,1.1l9.9,47c0.1,0.7,0.8,1.2,1.5,1.2
			c0.1,0,0.2,0,0.3,0l0.3-0.1c0.4-0.1,0.7-0.3,1-0.6c0.2-0.3,0.3-0.7,0.2-1.1l-10-47C1036.3,96,1035.4,95.5,1034.6,95.7z"/>
		<path fill="#B1E2F6" d="M1123.2,509.8l-0.2-0.1c-0.5-0.3-1.2-0.3-1.7,0c-0.5,0.3-0.7,1-0.6,1.5l2.2,10.6c0.1,0.5,0.5,0.9,0.9,1.1
			l0.1,0.1c0.2,0.1,0.4,0.2,0.7,0.2c0.3,0,0.7-0.1,0.9-0.3c0.5-0.4,0.7-0.9,0.5-1.5l-2.2-10.6
			C1123.8,510.4,1123.6,510.1,1123.2,509.8z"/>
		<path fill="#B1E2F6" d="M1159.1,684.5c-0.8,0.1-1.3,0.9-1.3,1.7l0.1,0.7c0,0.1,0,0.1,0,0.2l26.5,125.4c0.1,0.5,0.5,1,1.1,1.1
			c0,0,0.1,0,0.1,0c0.1,0,0.2,0,0.3,0c0.4,0,0.8-0.2,1.1-0.4c0.4-0.4,0.5-0.9,0.4-1.4l-26.6-126.2
			C1160.6,684.8,1159.9,684.4,1159.1,684.5z"/>
		<path fill="#B1E2F6" d="M1051.3,174.2l-0.3,0.1c-0.4,0.1-0.7,0.3-1,0.6c-0.2,0.3-0.3,0.7-0.2,1.1l7.7,36.3
			c0.1,0.7,0.8,1.2,1.5,1.2c0.1,0,0.2,0,0.2,0l0.3,0c0.4-0.1,0.8-0.3,1-0.6c0.2-0.3,0.3-0.8,0.2-1.2l-7.7-36.3
			C1052.9,174.5,1052.1,174,1051.3,174.2z"/>
		<path fill="#B1E2F6" d="M1342.4,1067.7c0,0-0.1,0-0.1,0c-0.5,0-0.9,0.2-1.2,0.5c-0.3,0.4-0.4,0.8-0.3,1.3l10.9,51.7
			c0.1,0.6,0.7,1.1,1.3,1.2c0,0,0.1,0,0.1,0c0.6,0,1.1-0.4,1.4-0.9l0.1-0.2c0.1-0.3,0.1-0.6,0.1-0.9l-10.9-51.5
			C1343.7,1068.3,1343.1,1067.8,1342.4,1067.7z"/>
		<path fill="#B1E2F6" d="M1222.8,495.7c-0.1-0.5-0.4-0.9-0.9-1.1l-0.2-0.1c-0.5-0.2-1.1-0.1-1.5,0.2c-0.4,0.4-0.6,0.9-0.5,1.5
			l10.2,48.4c0.1,0.4,0.3,0.8,0.7,1c0.2,0.1,0.5,0.2,0.8,0.2c0.1,0,0.3,0,0.4,0l0.3-0.1c0.8-0.2,1.2-1,1.1-1.8
			c-2.3-10.7-4.5-21.4-6.8-32.1L1222.8,495.7z"/>
		<path fill="#B1E2F6" d="M1133.2,79.5l-0.4,0.1c-0.4,0.1-0.8,0.3-1,0.6s-0.3,0.8-0.2,1.2l2.3,11.1c2.3,10.6,4.5,21.3,6.8,31.9
			c0.1,0.4,0.3,0.7,0.7,0.9c0.2,0.2,0.5,0.2,0.8,0.2c0.1,0,0.2,0,0.3,0l0.3-0.1c0.8-0.2,1.3-1,1.2-1.8l-9.1-43
			C1134.7,79.9,1134,79.4,1133.2,79.5z"/>
		<path fill="#B1E2F6" d="M1187.3,337.6c0.2,0,0.3,0,0.5-0.1c0.7-0.3,1.1-1,0.9-1.7l-38.2-180.5c-0.1-0.4-0.4-0.7-0.7-0.9
			c-0.3-0.2-0.8-0.3-1.2-0.2l-0.2,0c-0.4,0.1-0.7,0.3-0.9,0.6c-0.2,0.3-0.3,0.7-0.2,1.1c12.6,59.5,25.3,119,38,178.5l0.4,1.9
			c0,0.1,0.1,0.3,0.2,0.5l1.3-0.7l-1.3,0.7C1186.3,337.3,1186.8,337.6,1187.3,337.6z"/>
		<path fill="#B1E2F6" d="M1239.1,574.8c-0.4-0.2-0.8-0.3-1.2-0.2l-0.3,0.1c-0.8,0.2-1.2,1-1.1,1.8l1.7,8.1c0.1,0.5,0.5,1,1,1.1
			c0.2,0,0.3,0.1,0.5,0.1c0.4,0,0.7-0.1,1-0.4l0.2-0.2c0.4-0.4,0.6-0.9,0.5-1.4l-1.7-8C1239.7,575.3,1239.5,575,1239.1,574.8z"/>
		<path fill="#B1E2F6" d="M1267.9,712.2l-0.3-0.1c-0.5-0.2-1.1-0.1-1.5,0.3c-0.4,0.4-0.6,0.9-0.5,1.4l17.6,83.4
			c0.1,0.7,0.8,1.2,1.5,1.2c0.1,0,0.1,0,0.2,0c0,0,0.1,0,0.1,0c0.4-0.1,0.8-0.3,1-0.6s0.3-0.8,0.2-1.2
			c-5.8-27.8-11.6-55.5-17.4-83.3C1268.7,712.8,1268.3,712.3,1267.9,712.2z"/>
		<path fill="#B1E2F6" d="M1229.6,46.2L1219.9,0h-3.1l3.4,16c2.2,10.3,4.3,20.5,6.5,30.8l0,0c0,0,0,0,0,0l11.4,53.8
			c0.1,0.6,0.6,1.1,1.3,1.2c0,0,0.1,0,0.1,0c0.1,0,0.1,0,0.2,0c0.4,0,0.8-0.2,1.1-0.5c0.3-0.4,0.5-0.9,0.4-1.3L1229.6,46.2
			C1229.6,46.2,1229.6,46.2,1229.6,46.2z"/>
		<path fill="#B1E2F6" d="M1278.8,283.8l-0.2,0c-0.4,0-0.8,0.2-1.1,0.6c-0.3,0.3-0.4,0.8-0.3,1.2l16.5,77.9c0.1,0.4,0.3,0.7,0.6,0.9
			l0.3,0.2c0.3,0.2,0.6,0.3,0.9,0.3c0.3,0,0.6-0.1,0.8-0.2c0.5-0.3,0.8-1,0.6-1.6l-16.6-78.1
			C1280.2,284.3,1279.5,283.8,1278.8,283.8z"/>
		<path fill="#B1E2F6" d="M1317.9,462.4c-0.1-0.6-0.6-1.1-1.3-1.2c-0.6-0.1-1.2,0.2-1.5,0.8l-0.2,0.4c-0.2,0.3-0.2,0.7-0.1,1
			l11.5,54.5c0.1,0.4,0.3,0.8,0.7,1c0.2,0.1,0.5,0.2,0.8,0.2c0.1,0,0.3,0,0.4-0.1l0.3-0.1c0.8-0.2,1.2-1,1.1-1.8
			c-2.6-12.1-5.1-24.2-7.7-36.3L1317.9,462.4z"/>
		<path fill="#B1E2F6" d="M1361,671.8c-0.7-0.1-1.3,0.3-1.5,1l-0.2,0.5c-0.1,0.3-0.1,0.6-0.1,0.9l30.2,142.9
			c0.1,0.7,0.8,1.2,1.5,1.2c0.1,0,0.2,0,0.3,0c0.8-0.2,1.3-1,1.2-1.8c-9.2-44.1-19-91-30-143.4
			C1362.2,672.3,1361.7,671.8,1361,671.8z"/>
		<path fill="#B1E2F6" d="M1336.3,549.1c-0.1-0.4-0.3-0.8-0.7-1c-0.4-0.2-0.8-0.3-1.2-0.2l-0.3,0.1c-0.8,0.2-1.2,1-1.1,1.8l7,33.1
			c0.1,0.3,0.3,0.6,0.5,0.9l0.4,0.3c0.3,0.2,0.6,0.3,1,0.3c0.3,0,0.5-0.1,0.8-0.2c0.5-0.3,0.8-1,0.7-1.6l-3.1-14.8
			C1338.9,561.6,1337.6,555.3,1336.3,549.1z"/>
		<path fill="#B1E2F6" d="M1392.5,336.9c-0.4-0.2-0.9-0.2-1.4,0c-0.7,0.3-1,1-0.9,1.7l3.1,14.6c2.2,10.6,4.5,21.1,6.7,31.7v-15.4
			l-6.7-31.5C1393.2,337.5,1392.9,337.1,1392.5,336.9z"/>
		<path fill="#B1E2F6" d="M1360.7,195.1c-0.4,0.4-0.5,0.9-0.4,1.4l23,108.9c0.1,0.4,0.4,0.8,0.8,1c0.2,0.1,0.4,0.2,0.7,0.2
			c0.2,0,0.4,0,0.6-0.1l0.1-0.1c0.6-0.3,1-1,0.8-1.7l-23-108.9c-0.1-0.6-0.6-1-1.2-1.2l-0.4,1.4l0.4-1.5
			C1361.6,194.6,1361.1,194.8,1360.7,195.1z"/>
		<path fill="#B1E2F6" d="M1321.2,1c-0.5-0.1-1,0-1.4,0.4c-0.4,0.4-0.5,0.9-0.4,1.4l5.4,25.7c0.1,0.5,0.5,1,1,1.1
			c0.1,0,0.3,0.1,0.4,0.1c0.3,0,0.7-0.1,0.9-0.3c0.5-0.4,0.7-0.9,0.6-1.5l-5.4-25.7C1322.3,1.6,1321.8,1.1,1321.2,1z"/>
	</g>
</g>
</svg>
